<svg width="32" height="32" viewBox="0 0 32 32" fill="none" xmlns="http://www.w3.org/2000/svg">
<mask id="mask0_13157_1101" style="mask-type:alpha" maskUnits="userSpaceOnUse" x="0" y="0" width="32" height="32">
<rect width="32" height="32" fill="#D9D9D9"/>
</mask>
<g mask="url(#mask0_13157_1101)">
<path d="M25.052 29.577C24.7529 29.577 24.4802 29.5056 24.234 29.3627C23.9878 29.22 23.7929 29.0239 23.6493 28.7744C21.0031 28.3026 18.68 27.1132 16.68 25.2064C14.6802 23.2995 13.2777 20.9247 12.4723 18.082C10.2279 19.0565 8.44078 20.518 7.111 22.4667C5.781 24.4154 5.08178 26.5931 5.01334 29H3.01367C3.06478 26.0991 3.90067 23.4906 5.52134 21.1744C7.14178 18.8581 9.31012 17.1565 12.0263 16.0694C11.5597 13.6334 11.493 11.3982 11.8263 9.36402C12.1597 7.33002 12.8887 5.67969 14.0133 4.41302C13.9964 4.3788 13.9816 4.34458 13.9687 4.31036C13.9558 4.27614 13.9493 4.23769 13.9493 4.19502C13.9767 3.74702 14.1493 3.36747 14.4673 3.05636C14.7853 2.74525 15.1682 2.58969 15.616 2.58969C16.0776 2.58969 16.4707 2.75214 16.7953 3.07702C17.1202 3.40169 17.2827 3.7948 17.2827 4.25636C17.2827 4.71791 17.1202 5.11114 16.7953 5.43602C16.4707 5.76069 16.0776 5.92302 15.616 5.92302H15.489C15.449 5.92302 15.3999 5.91191 15.3417 5.88969C14.7672 6.61636 14.3399 7.4728 14.0597 8.45902C13.7792 9.44547 13.6416 10.5882 13.6467 11.8874C14.0142 11.2976 14.4818 10.7925 15.0493 10.372C15.6169 9.95136 16.2733 9.61369 17.0187 9.35902C17.6767 9.13858 18.3954 8.98347 19.175 8.89369C19.9546 8.80391 20.7921 8.77958 21.6877 8.82069C21.8399 8.64291 22.0164 8.50658 22.2173 8.41169C22.4182 8.3168 22.6366 8.26936 22.8723 8.26936C23.3339 8.26936 23.7271 8.43169 24.052 8.75636C24.3767 9.08125 24.539 9.47447 24.539 9.93602C24.539 10.3976 24.3767 10.7907 24.052 11.1154C23.7271 11.4402 23.3339 11.6027 22.8723 11.6027C22.587 11.6027 22.3178 11.5347 22.0647 11.3987C21.8118 11.2629 21.6136 11.0701 21.47 10.8204C20.6596 10.793 19.9027 10.8221 19.1993 10.9077C18.496 10.9932 17.8691 11.1419 17.3187 11.3537C16.4007 11.7026 15.7002 12.2104 15.2173 12.877C14.7344 13.5437 14.4606 14.3787 14.3957 15.382C15.0519 15.2367 15.6608 15.1346 16.2223 15.0757C16.7839 15.0168 17.6656 14.9874 18.8673 14.9874C19.0196 14.7822 19.2063 14.6219 19.4277 14.5064C19.649 14.391 19.8912 14.3334 20.1543 14.3334C20.6159 14.3334 21.0091 14.4958 21.334 14.8207C21.6587 15.1454 21.821 15.5385 21.821 16C21.821 16.4616 21.6587 16.8547 21.334 17.1794C21.0091 17.5042 20.6159 17.6667 20.1543 17.6667C19.8826 17.6667 19.6339 17.609 19.4083 17.4937C19.1828 17.3781 18.9981 17.2092 18.8543 16.987C17.7023 16.987 16.8507 17.0166 16.2993 17.0757C15.748 17.1346 15.1647 17.241 14.5493 17.395C14.8211 18.347 15.4177 19.0679 16.339 19.5577C17.2603 20.0475 18.5014 20.306 20.0623 20.3334C20.6468 20.3607 21.2771 20.3454 21.9533 20.2874C22.6293 20.2291 23.3152 20.1419 24.011 20.0257C24.1546 19.7488 24.3583 19.53 24.6223 19.3694C24.8866 19.2087 25.175 19.1284 25.4877 19.1284C25.9492 19.1284 26.3424 19.2907 26.6673 19.6154C26.992 19.9402 27.1543 20.3335 27.1543 20.795C27.1543 21.2566 26.992 21.6497 26.6673 21.9744C26.3424 22.2992 25.9492 22.4617 25.4877 22.4617C25.2741 22.4617 25.0771 22.4219 24.8967 22.3424C24.7164 22.2628 24.5502 22.1478 24.398 21.9974C23.6853 22.1136 22.9978 22.2042 22.3353 22.2694C21.6729 22.3342 21.0493 22.3667 20.4647 22.3667C19.6238 22.3667 18.8524 22.2991 18.1507 22.164C17.4489 22.0289 16.8168 21.8221 16.2543 21.5437C17.133 22.9488 18.2334 24.109 19.5557 25.0244C20.8779 25.9397 22.3082 26.5367 23.8467 26.8154C23.9989 26.6291 24.1789 26.4872 24.3867 26.3897C24.5942 26.2924 24.816 26.2437 25.052 26.2437C25.5136 26.2437 25.9067 26.406 26.2313 26.7307C26.5562 27.0556 26.7187 27.4488 26.7187 27.9104C26.7187 28.3719 26.5562 28.765 26.2313 29.0897C25.9067 29.4146 25.5136 29.577 25.052 29.577Z" fill="#212121"/>
</g>
</svg>
