<svg width="24" height="24" viewBox="0 0 24 24" fill="none" xmlns="http://www.w3.org/2000/svg">
<path d="M16.9567 0C17.0167 0 17.0766 0 17.14 0C17.287 1.69253 16.5936 2.95719 15.751 3.87301C14.9241 4.78251 13.7919 5.6646 11.9606 5.53076C11.8384 3.86247 12.5329 2.69161 13.3745 1.77789C14.155 0.92636 15.5858 0.168621 16.9567 0Z" fill="#3D3C3F"/>
<path d="M22.5003 17.6166C22.5003 17.6335 22.5003 17.6483 22.5003 17.6641C21.9857 19.1163 21.2516 20.361 20.3557 21.516C19.5379 22.5646 18.5358 23.9758 16.7463 23.9758C15.2001 23.9758 14.173 23.0494 12.5884 23.0241C10.912 22.9988 9.99017 23.7987 8.45751 24C8.28218 24 8.10686 24 7.93493 24C6.80947 23.8482 5.90118 23.0178 5.23948 22.2695C3.2883 20.0585 1.78052 17.2025 1.5 13.5476C1.5 13.1893 1.5 12.832 1.5 12.4737C1.61877 9.85799 2.9829 7.73126 4.79608 6.70057C5.753 6.15255 7.06849 5.68568 8.53329 5.89435C9.16106 5.98498 9.80241 6.18522 10.3646 6.38335C10.8973 6.5741 11.5636 6.9124 12.1947 6.89448C12.6223 6.88289 13.0476 6.67527 13.4785 6.52878C14.7409 6.10407 15.9783 5.61718 17.6094 5.84587C19.5696 6.12199 20.9609 6.93347 21.8205 8.18548C20.1623 9.16875 18.8514 10.6505 19.0753 13.1809C19.2744 15.4794 20.7086 16.8241 22.5003 17.6166Z" fill="#3D3C3F"/>
</svg>
