<svg width="24" height="24" viewBox="0 0 24 24" fill="none" xmlns="http://www.w3.org/2000/svg">
<path d="M18.75 2C18.75 1.58579 18.4142 1.25 18 1.25C17.5858 1.25 17.25 1.58579 17.25 2H18H18.75ZM17.25 4C17.25 4.41421 17.5858 4.75 18 4.75C18.4142 4.75 18.75 4.41421 18.75 4H18H17.25ZM6.75 2C6.75 1.58579 6.41421 1.25 6 1.25C5.58579 1.25 5.25 1.58579 5.25 2H6H6.75ZM5.25 4C5.25 4.41421 5.58579 4.75 6 4.75C6.41421 4.75 6.75 4.41421 6.75 4H6H5.25ZM9.25 17C9.25 17.4142 9.58579 17.75 10 17.75C10.4142 17.75 10.75 17.4142 10.75 17L10 17L9.25 17ZM9.99999 13.3472L9.24999 13.3472L9.99999 13.3472ZM9 12.25C8.58579 12.25 8.25 12.5858 8.25 13C8.25 13.4142 8.58579 13.75 9 13.75V13V12.25ZM12.9265 16.7391C12.7824 17.1275 12.9804 17.5591 13.3688 17.7032C13.7571 17.8472 14.1887 17.6492 14.3328 17.2609L13.6297 17L12.9265 16.7391ZM14.9842 13.3492L14.281 13.0883V13.0883L14.9842 13.3492ZM13 12.25C12.5858 12.25 12.25 12.5858 12.25 13C12.25 13.4142 12.5858 13.75 13 13.75V13V12.25ZM6 7.25C5.58579 7.25 5.25 7.58579 5.25 8C5.25 8.41421 5.58579 8.75 6 8.75V8V7.25ZM18 8.75C18.4142 8.75 18.75 8.41421 18.75 8C18.75 7.58579 18.4142 7.25 18 7.25V8V8.75ZM18 2H17.25V4H18H18.75V2H18ZM6 2H5.25V4H6H6.75V2H6ZM10 17L10.75 17L10.75 13.3472L9.99999 13.3472L9.24999 13.3472L9.25 17L10 17ZM9.69458 13V12.25H9V13V13.75H9.69458V13ZM9.99999 13.3472L10.75 13.3472C10.75 12.8346 10.365 12.25 9.69458 12.25V13V13.75C9.53817 13.75 9.417 13.6762 9.34739 13.597C9.27904 13.5193 9.24999 13.4288 9.24999 13.3472L9.99999 13.3472ZM13.6297 17L14.3328 17.2609L15.6873 13.61L14.9842 13.3492L14.281 13.0883L12.9265 16.7391L13.6297 17ZM14.7207 13V12.25H13V13V13.75H14.7207V13ZM14.9842 13.3492L15.6873 13.61C15.9557 12.8867 15.3667 12.25 14.7207 12.25V13V13.75C14.459 13.75 14.1393 13.4702 14.281 13.0883L14.9842 13.3492ZM11.05 3V3.75H12.95V3V2.25H11.05V3ZM21.5 12.2432H20.75V12.7568H21.5H22.25V12.2432H21.5ZM12.95 22V21.25H11.05V22V22.75H12.95V22ZM2.5 12.7568H3.25V12.2432H2.5H1.75V12.7568H2.5ZM11.05 22V21.25C9.01188 21.25 7.56476 21.2481 6.46704 21.0886C5.39728 20.9331 4.76921 20.6414 4.30269 20.1371L3.75212 20.6464L3.20154 21.1556C3.98714 22.0049 4.99276 22.3901 6.25129 22.573C7.48185 22.7519 9.05762 22.75 11.05 22.75V22ZM2.5 12.7568H1.75C1.75 14.9158 1.74863 16.6049 1.91225 17.9205C2.07785 19.2521 2.42363 20.3147 3.20154 21.1556L3.75212 20.6464L4.30269 20.1371C3.82849 19.6244 3.54821 18.9208 3.40078 17.7354C3.25137 16.5339 3.25 14.9551 3.25 12.7568H2.5ZM21.5 12.7568H20.75C20.75 14.9551 20.7486 16.5339 20.5992 17.7354C20.4518 18.9208 20.1715 19.6244 19.6973 20.1371L20.2479 20.6464L20.7985 21.1556C21.5764 20.3147 21.9222 19.2521 22.0878 17.9205C22.2514 16.6049 22.25 14.9158 22.25 12.7568H21.5ZM12.95 22V22.75C14.9424 22.75 16.5181 22.7519 17.7487 22.573C19.0072 22.3901 20.0129 22.0049 20.7985 21.1556L20.2479 20.6464L19.6973 20.1371C19.2308 20.6414 18.6027 20.9331 17.533 21.0886C16.4352 21.2481 14.9881 21.25 12.95 21.25V22ZM12.95 3V3.75C14.9881 3.75 16.4352 3.75186 17.533 3.91141C18.6027 4.06689 19.2308 4.35858 19.6973 4.86292L20.2479 4.35364L20.7985 3.84436C20.0129 2.99506 19.0072 2.60993 17.7487 2.427C16.5181 2.24814 14.9424 2.25 12.95 2.25V3ZM21.5 12.2432H22.25C22.25 10.0842 22.2514 8.39513 22.0878 7.07951C21.9222 5.74792 21.5764 4.68534 20.7985 3.84436L20.2479 4.35364L19.6973 4.86292C20.1715 5.37558 20.4518 6.07915 20.5992 7.26463C20.7486 8.46607 20.75 10.0449 20.75 12.2432H21.5ZM11.05 3V2.25C9.05762 2.25 7.48185 2.24814 6.25129 2.427C4.99276 2.60993 3.98714 2.99506 3.20154 3.84436L3.75212 4.35364L4.30269 4.86292C4.76921 4.35858 5.39728 4.06689 6.46704 3.91141C7.56476 3.75186 9.01188 3.75 11.05 3.75V3ZM2.5 12.2432H3.25C3.25 10.0449 3.25137 8.46607 3.40078 7.26463C3.54821 6.07915 3.82849 5.37558 4.30269 4.86292L3.75212 4.35364L3.20154 3.84436C2.42363 4.68534 2.07785 5.74792 1.91225 7.07951C1.74863 8.39513 1.75 10.0842 1.75 12.2432H2.5ZM6 8V8.75H18V8V7.25H6V8Z" fill="white"/>
</svg>
