<svg width="24" height="24" viewBox="0 0 24 24" fill="none" xmlns="http://www.w3.org/2000/svg">
<mask id="mask0_13137_265" style="mask-type:alpha" maskUnits="userSpaceOnUse" x="0" y="0" width="24" height="24">
<rect width="24" height="24" fill="#D9D9D9"/>
</mask>
<g mask="url(#mask0_13137_265)">
<path d="M5 8.80773H19V6.30773C19 6.23073 18.9679 6.16023 18.9038 6.09623C18.8398 6.03207 18.7693 5.99998 18.6923 5.99998H5.30775C5.23075 5.99998 5.16025 6.03207 5.09625 6.09623C5.03208 6.16023 5 6.23073 5 6.30773V8.80773ZM5.30775 21.5C4.80258 21.5 4.375 21.325 4.025 20.975C3.675 20.625 3.5 20.1974 3.5 19.6922V6.30773C3.5 5.80257 3.675 5.37498 4.025 5.02498C4.375 4.67498 4.80258 4.49998 5.30775 4.49998H6.69225V2.38474H8.23075V4.49998H15.8078V2.38474H17.3078V4.49998H18.6923C19.1974 4.49998 19.625 4.67498 19.975 5.02498C20.325 5.37498 20.5 5.80257 20.5 6.30773V11.7712C20.2602 11.6661 20.0153 11.5811 19.7653 11.5162C19.5153 11.4516 19.2602 11.4007 19 11.3635V10.3077H5V19.6922C5 19.7692 5.03208 19.8397 5.09625 19.9037C5.16025 19.9679 5.23075 20 5.30775 20H11.8098C11.8943 20.2768 11.9965 20.5387 12.1165 20.7855C12.2363 21.0323 12.3725 21.2705 12.525 21.5H5.30775ZM15.0058 21.1865C14.1301 20.3108 13.6923 19.2487 13.6923 18C13.6923 16.7513 14.1301 15.6892 15.0058 14.8135C15.8814 13.9378 16.9436 13.5 18.1923 13.5C19.4411 13.5 20.5033 13.9378 21.3788 14.8135C22.2544 15.6892 22.6923 16.7513 22.6923 18C22.6923 19.2487 22.2544 20.3108 21.3788 21.1865C20.5033 22.0622 19.4411 22.5 18.1923 22.5C16.9436 22.5 15.8814 22.0622 15.0058 21.1865ZM19.8578 20.2885L20.4808 19.6655L18.6348 17.8192V15.0577H17.75V18.1807L19.8578 20.2885Z" fill="#212121"/>
</g>
</svg>
