<svg width="20" height="20" viewBox="0 0 20 20" fill="none" xmlns="http://www.w3.org/2000/svg">
<path d="M15.75 1.6665C15.75 1.25229 15.4142 0.916504 15 0.916504C14.5858 0.916504 14.25 1.25229 14.25 1.6665H15.75ZM14.25 3.33317C14.25 3.74738 14.5858 4.08317 15 4.08317C15.4142 4.08317 15.75 3.74738 15.75 3.33317H14.25ZM5.74999 1.6665C5.74999 1.25229 5.41421 0.916504 4.99999 0.916504C4.58578 0.916504 4.24999 1.25229 4.24999 1.6665H5.74999ZM4.24999 3.33317C4.24999 3.74738 4.58578 4.08317 4.99999 4.08317C5.41421 4.08317 5.74999 3.74738 5.74999 3.33317H4.24999ZM7.58333 14.1665C7.58333 14.5807 7.91912 14.9165 8.33333 14.9165C8.74754 14.9165 9.08333 14.5807 9.08333 14.1665L7.58333 14.1665ZM8.33332 11.1225L7.58332 11.1225L8.33332 11.1225ZM7.49999 10.0832C7.08578 10.0832 6.74999 10.419 6.74999 10.8332C6.74999 11.2474 7.08578 11.5832 7.49999 11.5832V10.0832ZM10.6549 13.9056C10.5108 14.294 10.7088 14.7256 11.0972 14.8697C11.4855 15.0138 11.9171 14.8157 12.0612 14.4274L10.6549 13.9056ZM12.4868 11.1241L11.7836 10.8633V10.8633L12.4868 11.1241ZM10.8333 10.0832C10.4191 10.0832 10.0833 10.419 10.0833 10.8332C10.0833 11.2474 10.4191 11.5832 10.8333 11.5832V10.0832ZM4.99999 5.9165C4.58578 5.9165 4.24999 6.25229 4.24999 6.6665C4.24999 7.08072 4.58578 7.4165 4.99999 7.4165V5.9165ZM15 7.4165C15.4142 7.4165 15.75 7.08072 15.75 6.6665C15.75 6.25229 15.4142 5.9165 15 5.9165V7.4165ZM14.25 1.6665V3.33317H15.75V1.6665H14.25ZM4.24999 1.6665V3.33317H5.74999V1.6665H4.24999ZM9.08333 14.1665L9.08332 11.1225L7.58332 11.1225L7.58333 14.1665L9.08333 14.1665ZM8.07881 10.0832H7.49999V11.5832H8.07881V10.0832ZM9.08332 11.1225C9.08332 10.6418 8.72111 10.0832 8.07881 10.0832V11.5832C7.71763 11.5832 7.58332 11.2836 7.58332 11.1225L9.08332 11.1225ZM12.0612 14.4274L13.19 11.385L11.7836 10.8633L10.6549 13.9056L12.0612 14.4274ZM12.2672 10.0832H10.8333V11.5832H12.2672V10.0832ZM13.19 11.385C13.4478 10.6902 12.8812 10.0832 12.2672 10.0832V11.5832C11.9735 11.5832 11.6314 11.2736 11.7836 10.8633L13.19 11.385ZM9.20833 3.24984H10.7917V1.74984H9.20833V3.24984ZM17.1667 10.2025V10.6305H18.6667V10.2025H17.1667ZM10.7917 17.5832H9.20833V19.0832H10.7917V17.5832ZM2.83333 10.6305V10.2025H1.33333V10.6305H2.83333ZM9.20833 17.5832C7.50608 17.5832 6.31087 17.5813 5.40717 17.45C4.53144 17.3227 4.03951 17.0874 3.67733 16.6959L2.57619 17.7144C3.25744 18.4509 4.12692 18.7796 5.19142 18.9344C6.22796 19.085 7.55182 19.0832 9.20833 19.0832V17.5832ZM1.33333 10.6305C1.33333 12.4264 1.33196 13.8431 1.46949 14.949C1.60901 16.0708 1.90262 16.9862 2.57619 17.7144L3.67733 16.6959C3.30747 16.296 3.07937 15.7396 2.95802 14.7639C2.83469 13.7722 2.83333 12.4657 2.83333 10.6305H1.33333ZM17.1667 10.6305C17.1667 12.4657 17.1653 13.7722 17.042 14.7639C16.9206 15.7396 16.6925 16.296 16.3227 16.6959L17.4238 17.7144C18.0974 16.9862 18.391 16.0708 18.5305 14.949C18.668 13.8431 18.6667 12.4264 18.6667 10.6305H17.1667ZM10.7917 19.0832C12.4482 19.0832 13.772 19.085 14.8086 18.9344C15.8731 18.7796 16.7425 18.4509 17.4238 17.7144L16.3227 16.6959C15.9605 17.0874 15.4686 17.3227 14.5928 17.45C13.6891 17.5813 12.4939 17.5832 10.7917 17.5832V19.0832ZM10.7917 3.24984C12.4939 3.24984 13.6891 3.25169 14.5928 3.38304C15.4686 3.51033 15.9605 3.74561 16.3227 4.13715L17.4238 3.11859C16.7425 2.3821 15.8731 2.05336 14.8086 1.89864C13.772 1.74798 12.4482 1.74984 10.7917 1.74984V3.24984ZM18.6667 10.2025C18.6667 8.40665 18.668 6.98987 18.5305 5.884C18.391 4.76217 18.0974 3.84677 17.4238 3.11859L16.3227 4.13715C16.6925 4.53701 16.9206 5.0934 17.042 6.06912C17.1653 7.06081 17.1667 8.36735 17.1667 10.2025H18.6667ZM9.20833 1.74984C7.55182 1.74984 6.22796 1.74798 5.19142 1.89864C4.12692 2.05336 3.25744 2.3821 2.57619 3.11859L3.67733 4.13715C4.03951 3.74561 4.53144 3.51033 5.40717 3.38304C6.31087 3.25169 7.50608 3.24984 9.20833 3.24984V1.74984ZM2.83333 10.2025C2.83333 8.36735 2.83469 7.06081 2.95802 6.06912C3.07937 5.0934 3.30747 4.53701 3.67733 4.13715L2.57619 3.11859C1.90262 3.84677 1.60901 4.76217 1.46949 5.884C1.33196 6.98987 1.33333 8.40665 1.33333 10.2025H2.83333ZM4.99999 7.4165H15V5.9165H4.99999V7.4165Z" fill="#525252"/>
</svg>
