<svg width="24" height="24" viewBox="0 0 24 24" fill="none" xmlns="http://www.w3.org/2000/svg">
<mask id="mask0_13182_550" style="mask-type:alpha" maskUnits="userSpaceOnUse" x="0" y="0" width="24" height="24">
<rect width="24" height="24" fill="#D9D9D9"/>
</mask>
<g mask="url(#mask0_13182_550)">
<path d="M4 12.7885V14.6923C4 14.7692 4.03208 14.8398 4.09625 14.9038C4.16025 14.9679 4.23075 15 4.30775 15H19.6923C19.7693 15 19.8398 14.9679 19.9038 14.9038C19.9679 14.8398 20 14.7692 20 14.6923V12.7885H4ZM4.30775 2.5H19.6923C20.1909 2.5 20.6169 2.67658 20.9703 3.02975C21.3234 3.38308 21.5 3.80908 21.5 4.30775V14.6923C21.5 15.1909 21.3234 15.6169 20.9703 15.9703C20.6169 16.3234 20.1909 16.5 19.6923 16.5H15.4615V21.1345L12 19.4038L8.5385 21.1345V16.5H4.30775C3.80908 16.5 3.38308 16.3234 3.02975 15.9703C2.67658 15.6169 2.5 15.1909 2.5 14.6923V4.30775C2.5 3.80908 2.67658 3.38308 3.02975 3.02975C3.38308 2.67658 3.80908 2.5 4.30775 2.5ZM4 10.2115H20V4.30775C20 4.23075 19.9679 4.16025 19.9038 4.09625C19.8398 4.03208 19.7693 4 19.6923 4H4.30775C4.23075 4 4.16025 4.03208 4.09625 4.09625C4.03208 4.16025 4 4.23075 4 4.30775V10.2115ZM4 14.6923V4H4.30775C4.23075 4 4.16025 4.03208 4.09625 4.09625C4.03208 4.16025 4 4.23075 4 4.30775V14.6923C4 14.7692 4.03208 14.8398 4.09625 14.9038C4.16025 14.9679 4.23075 15 4.30775 15H4V14.6923Z" fill="#212121"/>
</g>
</svg>
