<svg width="50" height="50" viewBox="0 0 50 50" fill="none" xmlns="http://www.w3.org/2000/svg">
<path d="M15.625 7.2915C17.4437 7.2915 19.1625 7.71685 20.7812 8.56755C22.4 9.41824 23.8062 10.6382 25 12.2274C26.1937 10.6382 27.6 9.41824 29.2188 8.56755C30.8375 7.71685 32.5562 7.2915 34.375 7.2915C37.3316 7.2915 39.8069 8.28838 41.801 10.2821C43.7948 12.2762 44.7917 14.7516 44.7917 17.7082C44.7917 17.9085 44.783 18.1021 44.7656 18.2889C44.7483 18.4761 44.7328 18.6698 44.7193 18.8701H41.5948C41.6295 18.6698 41.6502 18.4761 41.6568 18.2889C41.6634 18.1021 41.6667 17.9085 41.6667 17.7082C41.6667 15.6248 40.9722 13.8887 39.5833 12.4998C38.1944 11.1109 36.4583 10.4165 34.375 10.4165C32.7299 10.4165 31.2094 10.8832 29.8135 11.8165C28.4181 12.7502 27.313 14.049 26.4984 15.7129H23.5016C22.6734 14.0354 21.5649 12.7333 20.176 11.8066C18.7872 10.8799 17.2701 10.4165 15.625 10.4165C13.5549 10.4165 11.822 11.1109 10.4266 12.4998C9.03107 13.8887 8.33333 15.6248 8.33333 17.7082C8.33333 17.9085 8.33663 18.1021 8.34323 18.2889C8.34982 18.4761 8.37048 18.6698 8.40521 18.8701H5.28073C5.26719 18.6698 5.25173 18.4761 5.23437 18.2889C5.21701 18.1021 5.20833 17.9085 5.20833 17.7082C5.20833 14.7516 6.20521 12.2762 8.19896 10.2821C10.1931 8.28838 12.6684 7.2915 15.625 7.2915ZM12.4042 31.1295H16.775C17.8861 32.2195 19.1148 33.3993 20.4609 34.6691C21.8071 35.9392 23.3201 37.3342 25 38.854C26.6799 37.3342 28.1929 35.9392 29.5391 34.6691C30.8852 33.3993 32.1139 32.2195 33.225 31.1295H37.6281C36.3486 32.4945 34.8628 33.9809 33.1708 35.5889C31.4788 37.1965 29.5217 39.0033 27.2995 41.0092L25 43.0764L22.7005 41.0092C20.4783 39.0033 18.5264 37.1965 16.8448 35.5889C15.1635 33.9809 13.6833 32.4945 12.4042 31.1295ZM23.0208 32.8123C23.3521 32.8123 23.6359 32.7155 23.8724 32.5217C24.1085 32.3283 24.2826 32.0766 24.3948 31.7665L27.5479 22.2754L29.8516 25.7248C30.0252 25.9759 30.2483 26.1783 30.5208 26.3321C30.7934 26.4856 31.0899 26.5623 31.4104 26.5623H47.3958V23.4373H32.1073L28.3932 17.9045C28.2384 17.6722 28.0361 17.4979 27.7865 17.3816C27.5368 17.2656 27.2677 17.2077 26.9792 17.2077C26.6479 17.2077 26.3608 17.3044 26.1177 17.4978C25.8747 17.6915 25.7038 17.9432 25.6052 18.253L22.4521 27.7321L20.1401 24.2748C19.9665 24.0238 19.7436 23.8214 19.4714 23.6675C19.1988 23.5141 18.9023 23.4373 18.5818 23.4373H2.60416V26.5623H17.8526L21.5865 32.1149C21.7413 32.3608 21.947 32.5386 22.2036 32.6483C22.4599 32.7576 22.7323 32.8123 23.0208 32.8123Z" fill="#6715D3"/>
</svg>
