<svg width="33" height="33" viewBox="0 0 33 33" fill="none" xmlns="http://www.w3.org/2000/svg">
<path d="M16.5 3.09375C15.8555 3.09375 15.215 3.31128 14.6631 3.70605L12.9551 4.89844L10.9893 5.15625H10.957L10.9248 5.18848C9.61157 5.48254 8.57629 6.51782 8.28223 7.83105L8.25 7.86328V7.89551L7.99219 9.89355L6.7998 11.4404L6.76758 11.4727V11.5049C6.04651 12.657 6.01428 14.1434 6.7998 15.2432L8.02441 16.9512L8.34668 18.7236L5.02734 23.7832L3.96387 25.3623H8.89453L10.0869 28.1338L10.8281 29.9062L11.8916 28.2949L15.1465 23.3965C16.0206 23.755 17.0076 23.7872 17.8535 23.3965L21.1084 28.2949L22.1719 29.9062L22.9131 28.1338L24.1055 25.3623H29.0361L27.9727 23.7832L24.75 18.8848L25.0078 16.9512L26.2002 15.2432L26.2324 15.2109V15.1787C26.9535 14.0266 26.9857 12.5724 26.2002 11.4727L25.0078 9.76465L24.6211 7.83105H24.6533C24.6493 7.80689 24.6251 7.79077 24.6211 7.7666C24.4358 6.41711 23.3683 5.32141 22.0107 5.15625H21.9785L20.0449 4.89844L18.3369 3.70605C17.785 3.31128 17.1445 3.09375 16.5 3.09375ZM16.5 5.18848C16.7377 5.18848 16.9713 5.26099 17.1445 5.38184L18.9814 6.70312L19.207 6.86426L19.4648 6.89648L21.7207 7.21875H21.7529C22.2162 7.27112 22.5385 7.59338 22.5908 8.05664V8.12109L23.0098 10.4092L23.042 10.6348L23.2031 10.8281L24.5244 12.665C24.7701 13.0074 24.8024 13.5875 24.4922 14.083L23.042 16.1133L23.0098 16.3711L22.6875 18.627V18.6592C22.6674 18.8284 22.611 18.9855 22.5264 19.1104L22.4619 19.1426V19.1748C22.3129 19.3521 22.1074 19.4689 21.8496 19.4971H21.7852L19.4326 19.916L19.1748 19.9482L18.9814 20.1094L17.1445 21.4307C16.8021 21.6764 16.1898 21.7086 15.6943 21.3984L14.0186 20.1094L13.8252 19.9482L13.5352 19.916L11.2793 19.5938H11.2471C10.9288 19.5575 10.6831 19.3923 10.5381 19.1426C10.4736 19.0298 10.4253 18.8969 10.4092 18.7559V18.6914L9.99023 16.3389L9.95801 16.0811L9.79688 15.8877L8.47559 14.0508C8.22986 13.7084 8.19763 13.0961 8.50781 12.6006L9.79688 10.9248L9.95801 10.7314L9.99023 10.4414L10.2803 8.28223C10.2843 8.26611 10.3085 8.26611 10.3125 8.25C10.4414 7.74646 10.8402 7.34766 11.3438 7.21875C11.3599 7.21472 11.3599 7.19055 11.376 7.18652L13.5352 6.89648L13.793 6.86426L14.0186 6.70312L15.8555 5.38184C16.0287 5.26099 16.2623 5.18848 16.5 5.18848ZM23.6221 20.8828L25.2012 23.2998H22.7197L22.4619 23.9443L21.7529 25.5879L19.5615 22.2363L20.0449 21.8818L22.0752 21.5273V21.5596C22.0994 21.5555 22.1155 21.5314 22.1396 21.5273C22.6956 21.4508 23.1991 21.2172 23.6221 20.8828ZM9.37793 20.915C9.81702 21.3098 10.377 21.5837 10.9893 21.6562C11.0013 21.6562 11.0094 21.6562 11.0215 21.6562L12.9873 21.9141L13.4385 22.2686L11.2471 25.5879L10.5381 23.9443L10.2803 23.2998H7.79883L9.37793 20.915Z" fill="#2563EB"/>
<path d="M14.0477 14.4958C13.7278 14.4958 13.4685 14.2365 13.4685 13.9166C13.4685 13.5968 13.7278 13.3375 14.0477 13.3375H18.9526C19.2724 13.3375 19.5317 13.5968 19.5317 13.9166C19.5317 14.2365 19.2724 14.4958 18.9526 14.4958H14.0477ZM15.9138 11.3283C15.9138 11.0006 16.1795 10.7349 16.5073 10.7349C16.835 10.7349 17.1007 11.0006 17.1007 11.3283V16.5049C17.1007 16.8327 16.835 17.0984 16.5073 17.0984C16.1795 17.0984 15.9138 16.8327 15.9138 16.5049V11.3283Z" fill="#2563EB"/>
</svg>
