<svg width="20" height="20" viewBox="0 0 20 20" fill="none" xmlns="http://www.w3.org/2000/svg">
<g clip-path="url(#clip0_29206_3401)">
<path d="M16.6667 7.49984C16.004 4.17863 12.9273 1.6665 9.2327 1.6665C5.05456 1.6665 1.66666 4.87918 1.66666 8.84154C1.66666 10.7453 2.44848 12.4752 3.72378 13.7588C4.00456 14.0415 4.19203 14.4276 4.11637 14.8251C3.99151 15.4749 3.70854 16.0811 3.2942 16.5862C4.38434 16.7872 5.51788 16.6063 6.49 16.0938C6.83364 15.9126 7.00547 15.8221 7.12672 15.8037C7.21159 15.7909 7.32215 15.8028 7.49999 15.8334M9.16666 13.5512C9.16666 15.9727 11.219 17.936 13.75 17.936C14.0476 17.9364 14.3443 17.9089 14.6367 17.854C14.8471 17.8144 14.9523 17.7947 15.0257 17.8059C15.0992 17.8171 15.2033 17.8725 15.4115 17.9832C16.0003 18.2964 16.687 18.4069 17.3474 18.2841C17.0964 17.9754 16.925 17.605 16.8493 17.2079C16.8035 16.965 16.9171 16.729 17.0872 16.5563C17.8597 15.7718 18.3333 14.7147 18.3333 13.5512C18.3333 11.1298 16.281 9.1665 13.75 9.1665C11.219 9.1665 9.16666 11.1298 9.16666 13.5512Z" stroke="#525252" stroke-width="1.5" stroke-linecap="round" stroke-linejoin="round"/>
</g>
<defs>
<clipPath id="clip0_29206_3401">
<rect width="20" height="20" fill="white"/>
</clipPath>
</defs>
</svg>
