<svg width="24" height="24" viewBox="0 0 24 24" fill="none" xmlns="http://www.w3.org/2000/svg">
<path d="M12 0.75C10.9691 0.75 10.241 1.50815 9.88104 2.4537H3V23.75H21V2.4537H14.119C13.759 1.50815 13.0309 0.75 12 0.75ZM12 2.4537C12.45 2.4537 12.8182 2.83704 12.8182 3.30556V4.15741H15.2727V5.86111H8.72727V4.15741H11.1818V3.30556C11.1818 2.83704 11.55 2.4537 12 2.4537ZM4.63636 4.15741H7.09091V7.56482H16.9091V4.15741H19.3636V22.0463H4.63636V4.15741ZM6.27273 10.1204V11.8241H7.90909V10.1204H6.27273ZM9.54545 10.1204V11.8241H17.7273V10.1204H9.54545ZM6.27273 13.5278V15.2315H7.90909V13.5278H6.27273ZM9.54545 13.5278V15.2315H17.7273V13.5278H9.54545ZM6.27273 16.9352V18.6389H7.90909V16.9352H6.27273ZM9.54545 16.9352V18.6389H17.7273V16.9352H9.54545Z" fill="#2563EB"/>
</svg>
