<svg width="32" height="32" viewBox="0 0 32 32" fill="none" xmlns="http://www.w3.org/2000/svg">
<path fill-rule="evenodd" clip-rule="evenodd" d="M2.66667 16.6668V15.3335C2.66667 10.9508 2.66667 8.75883 3.87734 7.28283C4.0988 7.01303 4.3462 6.76562 4.61601 6.54416C6.09334 5.3335 8.28267 5.3335 12.6667 5.3335C17.0493 5.3335 19.2413 5.3335 20.7173 6.54416C20.9871 6.76562 21.2346 7.01303 21.456 7.28283C22.392 8.42283 22.604 9.99083 22.652 12.6668L23.5453 12.2268C26.1387 10.9308 27.436 10.2815 28.3853 10.8682C29.3347 11.4548 29.3333 12.9068 29.3333 15.8055V16.1948C29.3333 19.0948 29.3333 20.5455 28.3853 21.1322C27.436 21.7188 26.1387 21.0695 23.5453 19.7722L22.652 19.3335C22.604 22.0095 22.392 23.5775 21.456 24.7175C21.2346 24.9873 20.9871 25.2347 20.7173 25.4562C19.24 26.6668 17.0507 26.6668 12.6667 26.6668C8.28401 26.6668 6.09201 26.6668 4.61601 25.4562C4.3462 25.2347 4.0988 24.9873 3.87734 24.7175C2.66667 23.2402 2.66667 21.0508 2.66667 16.6668ZM18.08 12.7468C18.6086 12.2466 18.8238 11.4987 18.6418 10.794C18.4598 10.0893 17.9093 9.53915 17.2046 9.35748C16.4998 9.1758 15.752 9.3913 15.252 9.92016C14.4944 10.7053 14.5058 11.9527 15.2777 12.7238C16.0495 13.4949 17.2956 13.5052 18.08 12.7468ZM18.08 12.7468C18.6086 12.2466 18.8238 11.4987 18.6418 10.794C18.4598 10.0893 17.9093 9.53915 17.2046 9.35748C16.4998 9.1758 15.752 9.3913 15.252 9.92016C14.4944 10.7053 14.5058 11.9527 15.2777 12.7238C16.0495 13.4949 17.2956 13.5052 18.08 12.7468Z" fill="white"/>
</svg>
