<svg width="14" height="14" viewBox="0 0 14 14" fill="none" xmlns="http://www.w3.org/2000/svg">
<path d="M5.32969 3.16595C6.07302 1.83298 6.4444 1.1665 7 1.1665C7.55559 1.1665 7.92697 1.83298 8.67031 3.16595L8.86274 3.51092C9.07395 3.88992 9.17955 4.07942 9.34383 4.20439C9.5081 4.32936 9.71344 4.3757 10.1241 4.4684L10.4973 4.55288C11.9405 4.87967 12.6616 5.04277 12.8335 5.59485C13.0048 6.14634 12.5131 6.72188 11.5293 7.87238L11.2746 8.16983C10.9954 8.49662 10.8551 8.66031 10.7924 8.86213C10.7296 9.06454 10.7507 9.28279 10.793 9.7187L10.8317 10.1159C10.9801 11.6513 11.0546 12.4187 10.6052 12.7595C10.1558 13.1004 9.47994 12.7894 8.12938 12.1675L7.77912 12.0068C7.39543 11.8296 7.20358 11.7416 7 11.7416C6.79641 11.7416 6.60457 11.8296 6.22087 12.0068L5.8712 12.1675C4.52005 12.7894 3.84418 13.1004 3.39537 12.7601C2.94537 12.4187 3.01988 11.6513 3.16832 10.1159L3.20704 9.71929C3.24928 9.28279 3.2704 9.06454 3.20704 8.86272C3.14485 8.66031 3.00463 8.49662 2.72536 8.17042L2.47074 7.87238C1.48686 6.72247 0.995213 6.14692 1.16653 5.59485C1.33784 5.04277 2.06006 4.87908 3.50332 4.55288L3.87645 4.4684C4.28655 4.3757 4.4913 4.32936 4.65617 4.20439C4.82103 4.07942 4.92604 3.88992 5.13725 3.51092L5.32969 3.16595Z" fill="#7C3AED"/>
</svg>
