<svg width="32" height="32" viewBox="0 0 32 32" fill="none" xmlns="http://www.w3.org/2000/svg">
<mask id="mask0_13157_1106" style="mask-type:alpha" maskUnits="userSpaceOnUse" x="0" y="0" width="32" height="32">
<rect width="32" height="32" fill="#D9D9D9"/>
</mask>
<g mask="url(#mask0_13157_1106)">
<path d="M22.5383 3.5C23.8256 3.50867 24.9251 3.96678 25.8369 4.87433C26.7489 5.78211 27.2049 6.87956 27.2049 8.16667C27.2049 8.394 27.1904 8.70467 27.1612 9.09867C27.1324 9.49267 27.0846 9.95211 27.0179 10.477L25.1716 23.9103C25.0863 24.5923 24.7799 25.1444 24.2526 25.5667C23.7253 25.9889 23.1205 26.2 22.4383 26.2C22.0043 26.2 21.6111 26.0953 21.2589 25.886C20.9067 25.6764 20.6076 25.4016 20.3616 25.0613L16.6026 19.7717C16.5324 19.6657 16.443 19.5853 16.3346 19.5307C16.2259 19.476 16.1033 19.4487 15.9666 19.4487C15.8435 19.4487 15.6315 19.5786 15.3306 19.8383L11.6716 24.9613C11.4034 25.3289 11.082 25.6272 10.7076 25.8563C10.3331 26.0854 9.92892 26.2 9.49492 26.2C8.8127 26.2 8.21348 25.9833 7.69725 25.55C7.18103 25.1167 6.88025 24.559 6.79492 23.877L4.98192 10.477C4.91526 9.95211 4.86748 9.49267 4.83859 9.09867C4.80948 8.70467 4.79492 8.394 4.79492 8.16667C4.79492 6.87956 5.25092 5.78 6.16292 4.868C7.0747 3.956 8.17425 3.5 9.46159 3.5C10.1845 3.5 10.7806 3.60556 11.2499 3.81667C11.7193 4.02778 12.1761 4.25556 12.6206 4.5C13.065 4.74444 13.5436 4.97222 14.0563 5.18333C14.5691 5.39444 15.217 5.5 15.9999 5.5C16.7915 5.5 17.4457 5.39444 17.9626 5.18333C18.4797 4.97222 18.9605 4.74444 19.4049 4.5C19.8494 4.25556 20.3075 4.02778 20.7793 3.81667C21.2513 3.60556 21.8376 3.5 22.5383 3.5ZM22.5383 5.5C22.0271 5.5 21.5771 5.60556 21.1883 5.81667C20.7994 6.02778 20.3759 6.25556 19.9179 6.5C19.4597 6.74444 18.928 6.97222 18.3229 7.18333C17.7178 7.39444 16.9435 7.5 15.9999 7.5C15.0735 7.5 14.3077 7.39444 13.7026 7.18333C13.0975 6.97222 12.5658 6.74444 12.1076 6.5C11.6496 6.25556 11.2218 6.02778 10.8243 5.81667C10.4269 5.60556 9.9727 5.5 9.46159 5.5C8.72825 5.5 8.10048 5.76111 7.57825 6.28333C7.05603 6.80556 6.79492 7.43333 6.79492 8.16667C6.79492 8.34444 6.80603 8.6 6.82825 8.93333C6.85048 9.26667 6.89492 9.65556 6.96159 10.1L8.79492 23.6C8.81714 23.7778 8.89492 23.9167 9.02825 24.0167C9.16159 24.1167 9.31714 24.1667 9.49492 24.1667C9.63159 24.1667 9.75081 24.1252 9.85259 24.0423C9.95414 23.9594 10.04 23.8607 10.1103 23.746L13.6819 18.7103C13.9504 18.3341 14.2863 18.0298 14.6896 17.7973C15.0931 17.5649 15.5299 17.4487 15.9999 17.4487C16.4615 17.4487 16.896 17.5649 17.3036 17.7973C17.7114 18.0298 18.0495 18.3341 18.3179 18.7103L21.9436 23.846C22.0136 23.9384 22.0884 24.0206 22.1679 24.0923C22.2472 24.1641 22.3485 24.2 22.4716 24.2C22.6494 24.2 22.8105 24.15 22.9549 24.05C23.0994 23.95 23.1827 23.8111 23.2049 23.6333L25.0383 10.1C25.1049 9.65556 25.1494 9.26667 25.1716 8.93333C25.1938 8.6 25.2049 8.34444 25.2049 8.16667C25.2049 7.43333 24.9438 6.80556 24.4216 6.28333C23.8994 5.76111 23.2716 5.5 22.5383 5.5Z" fill="#212121"/>
</g>
</svg>
