<svg width="32" height="32" viewBox="0 0 32 32" fill="none" xmlns="http://www.w3.org/2000/svg">
<mask id="mask0_13157_1111" style="mask-type:alpha" maskUnits="userSpaceOnUse" x="0" y="0" width="32" height="32">
<rect width="32" height="32" fill="#D9D9D9"/>
</mask>
<g mask="url(#mask0_13157_1111)">
<path d="M3.3335 27.3333V16.4137C3.3335 15.7466 3.5695 15.1774 4.0415 14.7063C4.5135 14.2354 5.08094 14 5.74383 14H12.3335V16C12.3335 17.0184 12.6898 17.8842 13.4025 18.5973C14.1152 19.3102 14.9805 19.6667 15.9985 19.6667C17.0167 19.6667 17.8826 19.3102 18.5962 18.5973C19.3099 17.8842 19.6668 17.0184 19.6668 16V14H26.2565C26.9194 14 27.4868 14.236 27.9588 14.708C28.4308 15.18 28.6668 15.7474 28.6668 16.4103V27.3333H3.3335ZM5.3335 25.3333H26.6668V16.4103C26.6668 16.2906 26.6284 16.1922 26.5515 16.1153C26.4746 16.0384 26.3763 16 26.2565 16H21.6668C21.6668 17.5709 21.1143 18.908 20.0092 20.0113C18.9043 21.1149 17.5679 21.6667 16.0002 21.6667C14.4324 21.6667 13.0961 21.1141 11.9912 20.009C10.8861 18.9041 10.3335 17.5678 10.3335 16H5.74383C5.62405 16 5.52572 16.0384 5.44883 16.1153C5.37194 16.1922 5.3335 16.2906 5.3335 16.4103V25.3333ZM15.9998 17C15.7163 17 15.4788 16.9041 15.2875 16.7123C15.0959 16.5208 15.0002 16.2833 15.0002 16C15.0002 13.6329 15.2715 11.2983 15.8142 8.99633C16.3571 6.69455 17.5318 4.78122 19.3385 3.25633C19.5592 3.08033 19.8024 3.00255 20.0682 3.023C20.3339 3.04366 20.5592 3.16211 20.7438 3.37833C20.9283 3.59455 21.0082 3.83766 20.9835 4.10766C20.9586 4.37766 20.8359 4.60078 20.6155 4.777C19.0257 6.12233 18.0257 7.80633 17.6155 9.829C17.2053 11.8519 17.0002 13.9089 17.0002 16C17.0002 16.2833 16.9043 16.5208 16.7125 16.7123C16.5207 16.9041 16.2832 17 15.9998 17ZM8.34516 20.3473C8.52538 20.1684 8.6155 19.9423 8.6155 19.669C8.6155 19.3957 8.52616 19.1688 8.3475 18.9883C8.16861 18.8081 7.9425 18.718 7.66916 18.718C7.39583 18.718 7.16894 18.8073 6.9885 18.986C6.80827 19.1649 6.71816 19.391 6.71816 19.6643C6.71816 19.9377 6.8075 20.1646 6.98616 20.345C7.16505 20.5252 7.39116 20.6153 7.6645 20.6153C7.93783 20.6153 8.16472 20.526 8.34516 20.3473ZM9.6785 23.6807C9.85872 23.5018 9.94883 23.2757 9.94883 23.0023C9.94883 22.729 9.8595 22.5021 9.68083 22.3217C9.50194 22.1414 9.27583 22.0513 9.0025 22.0513C8.72916 22.0513 8.50227 22.1407 8.32183 22.3193C8.14161 22.4982 8.0515 22.7243 8.0515 22.9977C8.0515 23.271 8.14083 23.4979 8.3195 23.6783C8.49838 23.8586 8.7245 23.9487 8.99783 23.9487C9.27116 23.9487 9.49805 23.8593 9.6785 23.6807ZM25.0118 20.3473C25.192 20.1684 25.2822 19.9423 25.2822 19.669C25.2822 19.3957 25.1928 19.1688 25.0142 18.9883C24.8353 18.8081 24.6092 18.718 24.3358 18.718C24.0625 18.718 23.8356 18.8073 23.6552 18.986C23.4749 19.1649 23.3848 19.391 23.3848 19.6643C23.3848 19.9377 23.4742 20.1646 23.6528 20.345C23.8317 20.5252 24.0578 20.6153 24.3312 20.6153C24.6045 20.6153 24.8314 20.526 25.0118 20.3473Z" fill="#212121"/>
</g>
</svg>
