<svg width="58" height="58" viewBox="0 0 58 58" fill="none" xmlns="http://www.w3.org/2000/svg">
<path d="M35.8634 39.295C43.1618 40.6725 48.3334 44.2008 48.3334 48.3333V53.1667H9.66675V48.3333C9.66675 44.2008 14.8384 40.6725 22.1367 39.295L29.0001 50.75L35.8634 39.295ZM19.3334 19.3333H38.6667V24.1667C38.6667 26.7304 37.6483 29.1892 35.8354 31.002C34.0226 32.8149 31.5638 33.8333 29.0001 33.8333C26.4363 33.8333 23.9776 32.8149 22.1647 31.002C20.3519 29.1892 19.3334 26.7304 19.3334 24.1667V19.3333ZM19.3334 16.9167L20.3242 7.00834C20.4451 5.77584 21.4842 4.83334 22.7409 4.83334H35.2834C36.5159 4.83334 37.5551 5.77584 37.6759 7.00834L38.6667 16.9167H19.3334ZM29.0001 7.25001H26.5834V9.66668H24.1667V12.0833H26.5834V14.5H29.0001V12.0833H31.4167V9.66668H29.0001V7.25001Z" fill="currentColor"/>
</svg>
