<svg width="24" height="24" viewBox="0 0 24 24" fill="none" xmlns="http://www.w3.org/2000/svg">
<path d="M17.9682 16.3148L18.8237 16.6484C19.383 16.8665 19.6627 16.9756 19.9396 16.9954C20.2866 17.0201 20.6335 16.9455 20.9406 16.78C21.1857 16.6479 21.3976 16.433 21.8214 16.0034C22.4413 15.3748 22.7513 15.0605 22.8923 14.6758C23.0585 14.2227 23.0305 13.633 22.8222 13.1981C22.6454 12.829 22.3406 12.5744 21.7311 12.0652C15.2438 6.64495 8.75636 6.64495 2.26902 12.0651C1.6595 12.5743 1.35473 12.829 1.17797 13.1981C0.969627 13.633 0.941713 14.2227 1.10776 14.6758C1.2489 15.0605 1.55882 15.3747 2.17875 16.0033C2.60255 16.433 2.81442 16.6479 3.0595 16.78C3.36669 16.9455 3.71355 17.0201 4.06054 16.9953C4.33739 16.9756 4.61705 16.8665 5.17644 16.6484L6.03196 16.3148C6.6377 16.0786 6.94057 15.9604 7.17388 15.7649C7.39726 15.5778 7.57422 15.3403 7.69078 15.0714C7.81256 14.7904 7.84192 14.4627 7.90075 13.8073C7.95919 13.1549 7.98841 12.8287 8.12452 12.5319C8.2452 12.2688 8.47073 11.9879 8.70044 11.8149C8.95958 11.6196 9.22486 11.5379 9.75561 11.3747C11.4066 10.8667 12.5934 10.8666 14.2446 11.3747C14.7752 11.5379 15.0406 11.6196 15.2997 11.8148C15.5294 11.9879 15.755 12.2688 15.8756 12.5319C16.0117 12.8287 16.0409 13.1549 16.0994 13.8073C16.1582 14.4627 16.1876 14.7904 16.3093 15.0714C16.4259 15.3403 16.6029 15.5778 16.8262 15.7649C17.0596 15.9604 17.3624 16.0785 17.9682 16.3148Z" stroke="white" stroke-width="1.5" stroke-linecap="round"/>
</svg>
