<svg width="32" height="32" viewBox="0 0 32 32" fill="none" xmlns="http://www.w3.org/2000/svg">
<mask id="mask0_13157_1116" style="mask-type:alpha" maskUnits="userSpaceOnUse" x="0" y="0" width="32" height="32">
<rect width="32" height="32" fill="#D9D9D9"/>
</mask>
<g mask="url(#mask0_13157_1116)">
<path d="M14.5653 22.232C14.8551 21.9422 15 21.5871 15 21.1667C15 20.1325 14.7227 19.1987 14.168 18.3653C13.6133 17.532 12.8907 16.8581 12 16.3437V21.1667C12 21.5871 12.1449 21.9422 12.4347 22.232C12.7244 22.5218 13.0795 22.6667 13.5 22.6667C13.9204 22.6667 14.2755 22.5218 14.5653 22.232ZM19.5653 22.232C19.8551 21.9422 20 21.5871 20 21.1667V16.3437C19.1093 16.8581 18.3867 17.532 17.832 18.3653C17.2773 19.1987 17 20.1325 17 21.1667C17 21.5871 17.1449 21.9422 17.4347 22.232C17.7244 22.5218 18.0795 22.6667 18.5 22.6667C18.9204 22.6667 19.2755 22.5218 19.5653 22.232ZM3.65632 27.4847L3.02832 25.5923C3.92743 25.2215 4.65599 24.6321 5.21399 23.8243C5.77221 23.0166 6.05132 22.1196 6.05132 21.1333V7.81534C5.46665 7.23757 4.93632 6.60901 4.46032 5.92968C3.98432 5.25012 3.56932 4.52401 3.21532 3.75134L5.06665 2.95401C6.05976 5.10601 7.53921 6.8269 9.50499 8.11668C11.471 9.40645 13.636 10.0513 16 10.0513C18.3727 10.0513 20.5398 9.40645 22.5013 8.11668C24.4629 6.8269 25.9402 5.10601 26.9333 2.95401L28.7847 3.75134C28.4307 4.52401 28.0122 5.25012 27.5293 5.92968C27.0464 6.60901 26.5195 7.23757 25.9487 7.81534V21.1333C25.9487 22.1196 26.2222 23.0166 26.7693 23.8243C27.3162 24.6321 28.0392 25.2215 28.9383 25.5923L28.3103 27.4847C26.9974 26.9871 25.9423 26.161 25.145 25.0063C24.3474 23.8517 23.9487 22.5607 23.9487 21.1333V9.53334C22.788 10.3282 21.5375 10.9466 20.1973 11.3883C18.8573 11.8303 17.4582 12.0513 16 12.0513C14.5418 12.0513 13.1392 11.8303 11.7923 11.3883C10.4452 10.9466 9.19821 10.3282 8.05132 9.53334V21.1333C8.05132 22.5607 7.64699 23.8517 6.83832 25.0063C6.02988 26.161 4.96921 26.9871 3.65632 27.4847ZM13.5 24.6667C12.5255 24.6667 11.6987 24.3269 11.0193 23.6473C10.3398 22.968 9.99999 22.1411 9.99999 21.1667V13.5693L11.1077 13.836C12.1725 14.1231 13.1281 14.5958 13.9743 15.254C14.8205 15.912 15.4958 16.6847 16 17.572C16.5042 16.6762 17.1773 15.9013 18.0193 15.2473C18.8611 14.5936 19.8188 14.1188 20.8923 13.823L22 13.5563V21.1667C22 22.1411 21.6602 22.968 20.9807 23.6473C20.3013 24.3269 19.4744 24.6667 18.5 24.6667C18.006 24.6667 17.544 24.5679 17.114 24.3703C16.6842 24.173 16.3129 23.9102 16 23.582C15.6871 23.9102 15.3158 24.173 14.886 24.3703C14.456 24.5679 13.994 24.6667 13.5 24.6667Z" fill="#212121"/>
</g>
</svg>
