<svg width="32" height="32" viewBox="0 0 32 32" fill="none" xmlns="http://www.w3.org/2000/svg">
<mask id="mask0_13157_1121" style="mask-type:alpha" maskUnits="userSpaceOnUse" x="0" y="0" width="32" height="32">
<rect width="32" height="32" fill="#D9D9D9"/>
</mask>
<g mask="url(#mask0_13157_1121)">
<path d="M4.65381 29V21.3333C4.65381 20.3162 5.01059 19.4509 5.72414 18.7373C6.43792 18.0236 7.30336 17.6667 8.32048 17.6667H10.9871C12.1923 17.6667 13.2157 17.2458 14.0575 16.404C14.8995 15.562 15.3205 14.5384 15.3205 13.3333C15.3205 12.87 15.1585 12.4764 14.8345 12.1527C14.5105 11.8287 14.1169 11.6667 13.6538 11.6667C13.0058 11.6667 12.4549 11.4398 12.0011 10.986C11.5474 10.532 11.3205 9.98111 11.3205 9.33333V3H13.3331V9.33333C13.3331 9.42733 13.363 9.50644 13.4228 9.57067C13.4828 9.63467 13.5598 9.66667 13.6538 9.66667C14.6709 9.66667 15.5363 10.0236 16.2498 10.7373C16.9636 11.4509 17.3205 12.3162 17.3205 13.3333C17.3205 15.0838 16.7025 16.5769 15.4665 17.8127C14.2307 19.0487 12.7376 19.6667 10.9871 19.6667H8.32048C7.85714 19.6667 7.46348 19.8287 7.13948 20.1527C6.8157 20.4764 6.65381 20.87 6.65381 21.3333V29H4.65381ZM11.3331 29H9.33314V26.6667C9.33314 25.6496 9.69003 24.7842 10.4038 24.0707C11.1174 23.3569 11.9827 23 12.9998 23H18.3331C20.2716 23 21.9229 22.318 23.2871 20.954C24.6511 19.5898 25.3331 17.9384 25.3331 16V14.6667C25.3331 12.7538 24.6874 11.1089 23.3958 9.732C22.1045 8.35511 20.5153 7.66667 18.6281 7.66667C17.9033 7.66667 17.284 7.40767 16.7705 6.88967C16.2567 6.37167 15.9998 5.75456 15.9998 5.03833V3H17.9998V5.03833C17.9998 5.20945 18.0618 5.35689 18.1858 5.48067C18.3096 5.60467 18.457 5.66667 18.6281 5.66667C21.0828 5.66667 23.1473 6.54656 24.8215 8.30633C26.4959 10.0663 27.3331 12.1864 27.3331 14.6667V16C27.3331 18.506 26.4596 20.6324 24.7125 22.3793C22.9656 24.1264 20.8391 25 18.3331 25H12.9998C12.5365 25 12.1429 25.162 11.8191 25.486C11.4951 25.8098 11.3331 26.2033 11.3331 26.6667V29Z" fill="#212121"/>
</g>
</svg>
