<svg width="50" height="50" viewBox="0 0 50 50" fill="none" xmlns="http://www.w3.org/2000/svg">
<path d="M25 45.2083C23.4962 45.2083 21.7514 45.012 19.7656 44.6193C17.7799 44.2266 16.2087 43.7899 15.0521 43.3094C14.6701 43.149 14.3562 42.8931 14.1104 42.5417C13.8649 42.1903 13.7422 41.8038 13.7422 41.3823V39.6797H11.9792C11.4458 39.6797 10.9986 39.4991 10.6375 39.138C10.2767 38.7773 10.0964 38.33 10.0964 37.7964V34.9214C10.0964 34.3783 10.2767 33.9271 10.6375 33.5677C10.9986 33.2083 11.4458 33.0286 11.9792 33.0286H13.7422V28.2213H11.9792C11.4458 28.2213 10.9986 28.0408 10.6375 27.6797C10.2767 27.3189 10.0964 26.8717 10.0964 26.338V23.463C10.0964 22.92 10.2767 22.4687 10.6375 22.1094C10.9986 21.75 11.4458 21.5703 11.9792 21.5703H13.7422V16.963H11.9792C11.4458 16.963 10.9986 16.7826 10.6375 16.4219C10.2767 16.0608 10.0964 15.6135 10.0964 15.0802V12.2047C10.0964 11.6616 10.2767 11.2106 10.6375 10.8516C10.9986 10.4922 11.4458 10.3125 11.9792 10.3125H13.7422V7.60832C13.7422 6.98471 13.9845 6.517 14.4693 6.2052C14.954 5.89339 15.4835 5.84964 16.0578 6.07395C16.5734 6.23402 17.6618 6.54652 19.3229 7.01145C20.9844 7.47603 22.8767 7.70832 25 7.70832C27.1233 7.70832 29.0156 7.47256 30.6771 7.00103C32.3382 6.52985 33.4266 6.21405 33.9422 6.05363C34.5165 5.82933 35.046 5.8802 35.5307 6.20624C36.0154 6.53228 36.2578 6.99287 36.2578 7.58801V10.3125H38.0208C38.5542 10.3125 39.0014 10.4929 39.3625 10.8536C39.7233 11.2147 39.9036 11.662 39.9036 12.1953V15.0708C39.9036 15.6139 39.7233 16.0651 39.3625 16.4245C39.0014 16.7835 38.5542 16.963 38.0208 16.963H36.2578V21.5703H38.0208C38.5542 21.5703 39.0014 21.7509 39.3625 22.112C39.7233 22.4727 39.9036 22.92 39.9036 23.4536V26.3286C39.9036 26.8717 39.7233 27.3229 39.3625 27.6823C39.0014 28.0417 38.5542 28.2213 38.0208 28.2213H36.2578V33.0286H38.0208C38.5542 33.0286 39.0014 33.2092 39.3625 33.5703C39.7233 33.9311 39.9036 34.3783 39.9036 34.912V37.787C39.9036 38.33 39.7233 38.7812 39.3625 39.1406C39.0014 39.5 38.5542 39.6797 38.0208 39.6797H36.2578V41.3823C36.2578 41.8038 36.1351 42.1903 35.8896 42.5417C35.6437 42.8931 35.3299 43.149 34.9479 43.3094C33.7913 43.7899 32.2201 44.2266 30.2344 44.6193C28.2486 45.012 26.5038 45.2083 25 45.2083ZM25 18.9583C26.3194 18.9583 27.687 18.8368 29.1026 18.5937C30.5182 18.3507 31.8616 18.0035 33.1328 17.5521V9.58332C31.8269 9.96527 30.4802 10.2691 29.0927 10.4948C27.7052 10.7205 26.3377 10.8333 24.9901 10.8333C23.6773 10.8333 22.3271 10.7205 20.9396 10.4948C19.5521 10.2691 18.1946 9.96527 16.8672 9.58332V17.5521C18.1172 18.0035 19.4552 18.3507 20.8812 18.5937C22.3076 18.8368 23.6806 18.9583 25 18.9583ZM25 30.8333C26.2979 30.8333 27.6547 30.7085 29.0703 30.4588C30.4859 30.2092 31.8401 29.8479 33.1328 29.375V20.8333C31.6988 21.2233 30.3094 21.529 28.9646 21.7505C27.6194 21.9724 26.2979 22.0833 25 22.0833C23.659 22.0833 22.3002 21.9759 20.9234 21.7609C19.5467 21.5457 18.1946 21.2365 16.8672 20.8333V29.375C18.1599 29.8479 19.5141 30.2092 20.9297 30.4588C22.3453 30.7085 23.7021 30.8333 25 30.8333ZM25 42.0833C26.3194 42.0833 27.687 41.9618 29.1026 41.7187C30.5182 41.4757 31.8616 41.1285 33.1328 40.6771V32.7083C31.8269 33.0903 30.4802 33.3941 29.0927 33.6198C27.7052 33.8455 26.3377 33.9583 24.9901 33.9583C23.6773 33.9583 22.3271 33.8455 20.9396 33.6198C19.5521 33.3941 18.1946 33.0903 16.8672 32.7083V40.6771C18.1172 41.1285 19.4552 41.4757 20.8812 41.7187C22.3076 41.9618 23.6806 42.0833 25 42.0833Z" fill="#6715D3"/>
</svg>
