<svg width="32" height="32" viewBox="0 0 32 32" fill="none" xmlns="http://www.w3.org/2000/svg">
<mask id="mask0_13157_1136" style="mask-type:alpha" maskUnits="userSpaceOnUse" x="0" y="0" width="32" height="32">
<rect width="32" height="32" fill="#D9D9D9"/>
</mask>
<g mask="url(#mask0_13157_1136)">
<path d="M13.9245 28.1653C13.086 26.9422 12.6668 25.5538 12.6668 24C12.6668 22.4462 13.086 21.0578 13.9245 19.8347C14.7629 18.6116 15.8992 18 17.3335 18C18.7677 18 19.904 18.6116 20.7425 19.8347C21.5809 21.0578 22.0001 22.4462 22.0001 24C22.0001 25.5538 21.5809 26.9422 20.7425 28.1653C19.904 29.3884 18.7677 30 17.3335 30C15.8992 30 14.7629 29.3884 13.9245 28.1653ZM6.03613 29.323L4.1438 28.7153C4.79847 26.652 5.26935 24.5563 5.55647 22.4283C5.8438 20.3001 5.98747 18.1573 5.98747 16C5.98747 13.8427 5.8438 11.6999 5.55647 9.57167C5.26935 7.44367 4.79847 5.348 4.1438 3.28467L6.03613 2.677C6.72658 4.83944 7.22435 7.03089 7.52947 9.25133C7.8348 11.4718 7.98747 13.7213 7.98747 16C7.98747 18.2787 7.8348 20.5282 7.52947 22.7487C7.22435 24.9691 6.72658 27.1606 6.03613 29.323ZM25.9515 29.323C25.2608 27.1606 24.7629 24.9691 24.4578 22.7487C24.1527 20.5282 24.0001 18.2787 24.0001 16C24.0001 13.7213 24.1527 11.4718 24.4578 9.25133C24.7629 7.03089 25.2608 4.83944 25.9515 2.677L27.8438 3.28467C27.1889 5.348 26.7179 7.44367 26.4308 9.57167C26.1437 11.6999 26.0001 13.8427 26.0001 16C26.0001 18.1573 26.1437 20.3001 26.4308 22.4283C26.7179 24.5563 27.1889 26.652 27.8438 28.7153L25.9515 29.323ZM19.3335 26.75C19.7779 25.9167 20.0001 25 20.0001 24C20.0001 23 19.7779 22.0833 19.3335 21.25C18.889 20.4167 18.2224 20 17.3335 20C16.4446 20 15.7779 20.4167 15.3335 21.25C14.889 22.0833 14.6668 23 14.6668 24C14.6668 25 14.889 25.9167 15.3335 26.75C15.7779 27.5833 16.4446 28 17.3335 28C18.2224 28 18.889 27.5833 19.3335 26.75ZM16.4411 26.246C16.5985 26.3898 16.7827 26.4594 16.9938 26.455C17.2049 26.4508 17.3934 26.37 17.5591 26.2127C17.8531 25.9273 18.077 25.5919 18.2308 25.2063C18.3848 24.821 18.4618 24.4189 18.4618 24C18.4618 23.5811 18.3861 23.1811 18.2348 22.8C18.0835 22.4189 17.865 22.0813 17.5795 21.7873C17.4359 21.63 17.2574 21.5492 17.0438 21.545C16.83 21.5406 16.6402 21.6102 16.4745 21.754C16.3087 21.8976 16.2224 22.0817 16.2155 22.3063C16.2086 22.5312 16.277 22.7266 16.4208 22.8923C16.489 22.9608 16.5812 23.098 16.6975 23.304C16.8137 23.5098 16.8718 23.7418 16.8718 24C16.8718 24.2582 16.8137 24.4902 16.6975 24.696C16.5812 24.902 16.489 25.0392 16.4208 25.1077C16.2548 25.2734 16.1752 25.4688 16.1821 25.6937C16.189 25.9183 16.2754 26.1024 16.4411 26.246ZM11.2578 12.1653C10.4194 10.9422 10.0001 9.55378 10.0001 8C10.0001 6.44622 10.4194 5.05778 11.2578 3.83467C12.0962 2.61155 13.2326 2 14.6668 2C16.101 2 17.2374 2.61155 18.0758 3.83467C18.9142 5.05778 19.3335 6.44622 19.3335 8C19.3335 9.55378 18.9142 10.9422 18.0758 12.1653C17.2374 13.3884 16.101 14 14.6668 14C13.2326 14 12.0962 13.3884 11.2578 12.1653ZM16.6668 10.75C17.1112 9.91667 17.3335 9 17.3335 8C17.3335 7 17.1112 6.08333 16.6668 5.25C16.2224 4.41667 15.5557 4 14.6668 4C13.7779 4 13.1112 4.41667 12.6668 5.25C12.2224 6.08333 12.0001 7 12.0001 8C12.0001 9 12.2224 9.91667 12.6668 10.75C13.1112 11.5833 13.7779 12 14.6668 12C15.5557 12 16.2224 11.5833 16.6668 10.75ZM15.5258 10.246C15.6916 10.1024 15.7779 9.91833 15.7848 9.69367C15.7917 9.46878 15.7232 9.27344 15.5795 9.10767C15.4428 8.95722 15.3335 8.78589 15.2515 8.59367C15.1695 8.40122 15.1285 8.20333 15.1285 8C15.1285 7.79667 15.1695 7.59878 15.2515 7.40633C15.3335 7.21411 15.4428 7.04278 15.5795 6.89233C15.7317 6.72656 15.8078 6.53678 15.8078 6.323C15.8078 6.10944 15.7249 5.91978 15.5591 5.754C15.4018 5.61022 15.2155 5.53833 15.0001 5.53833C14.7848 5.53833 14.5985 5.617 14.4411 5.77433C14.1471 6.06833 13.9232 6.40811 13.7695 6.79367C13.6155 7.179 13.5385 7.58111 13.5385 8C13.5385 8.41889 13.612 8.81889 13.7591 9.2C13.9062 9.58111 14.1268 9.91867 14.4208 10.2127C14.5779 10.37 14.762 10.4508 14.9731 10.455C15.1842 10.4594 15.3685 10.3898 15.5258 10.246Z" fill="#212121"/>
</g>
</svg>
