<svg width="24" height="24" viewBox="0 0 24 24" fill="none" xmlns="http://www.w3.org/2000/svg">
<path d="M12 16.25C11.5858 16.25 11.25 16.5858 11.25 17C11.25 17.4142 11.5858 17.75 12 17.75V17V16.25ZM12.009 17.75C12.4232 17.75 12.759 17.4142 12.759 17C12.759 16.5858 12.4232 16.25 12.009 16.25V17V17.75ZM18.8284 20.3284L19.3588 20.8588L18.8284 20.3284ZM17.6569 6.33548L17.1378 6.87683L17.6569 6.33548ZM21.4809 11.0413C21.7799 11.328 22.2547 11.3181 22.5413 11.0191C22.828 10.7201 22.8181 10.2453 22.5191 9.95865L22 10.5L21.4809 11.0413ZM1.48092 9.95865C1.18194 10.2453 1.17197 10.7201 1.45865 11.0191C1.74533 11.3181 2.2201 11.328 2.51908 11.0413L2 10.5L1.48092 9.95865ZM6.34315 6.33548L6.86223 6.87683L6.34315 6.33548ZM12 17V17.75H12.009V17V16.25H12V17ZM20 8.5H19.25V13.5H20H20.75V8.5H20ZM4 13.5H4.75V8.5H4H3.25V13.5H4ZM12 21.5V20.75C10.0932 20.75 8.73851 20.7484 7.71085 20.6102C6.70476 20.475 6.12511 20.2213 5.7019 19.7981L5.17157 20.3284L4.64124 20.8588C5.38961 21.6071 6.33855 21.9392 7.51098 22.0969C8.66182 22.2516 10.1356 22.25 12 22.25V21.5ZM4 13.5H3.25C3.25 15.3644 3.24841 16.8382 3.40313 17.989C3.56076 19.1614 3.89288 20.1104 4.64124 20.8588L5.17157 20.3284L5.7019 19.7981C5.27869 19.3749 5.02502 18.7952 4.88976 17.7892C4.75159 16.7615 4.75 15.4068 4.75 13.5H4ZM20 13.5H19.25C19.25 15.4068 19.2484 16.7615 19.1102 17.7892C18.975 18.7952 18.7213 19.3749 18.2981 19.7981L18.8284 20.3284L19.3588 20.8588C20.1071 20.1104 20.4392 19.1614 20.5969 17.989C20.7516 16.8382 20.75 15.3644 20.75 13.5H20ZM12 21.5V22.25C13.8644 22.25 15.3382 22.2516 16.489 22.0969C17.6614 21.9392 18.6104 21.6071 19.3588 20.8588L18.8284 20.3284L18.2981 19.7981C17.8749 20.2213 17.2952 20.475 16.2892 20.6102C15.2615 20.7484 13.9068 20.75 12 20.75V21.5ZM17.6569 6.33548L17.1378 6.87683L21.4809 11.0413L22 10.5L22.5191 9.95865L18.1759 5.79414L17.6569 6.33548ZM2 10.5L2.51908 11.0413L6.86223 6.87683L6.34315 6.33548L5.82407 5.79413L1.48092 9.95865L2 10.5ZM17.6569 6.33548L18.1759 5.79414C16.8577 4.5301 15.8162 3.52925 14.8926 2.85357C13.9505 2.16435 13.0488 1.75 12 1.75V2.5V3.25C12.608 3.25 13.2014 3.47489 14.0069 4.06418C14.8309 4.66699 15.7894 5.58388 17.1378 6.87683L17.6569 6.33548ZM6.34315 6.33548L6.86223 6.87683C8.21064 5.58388 9.16912 4.66699 9.99309 4.06418C10.7986 3.47489 11.392 3.25 12 3.25V2.5V1.75C10.9512 1.75 10.0495 2.16435 9.10742 2.85356C8.18384 3.52924 7.14233 4.53009 5.82407 5.79413L6.34315 6.33548Z" fill="white"/>
</svg>
