<svg width="32" height="32" viewBox="0 0 32 32" fill="none" xmlns="http://www.w3.org/2000/svg">
<mask id="mask0_13157_1126" style="mask-type:alpha" maskUnits="userSpaceOnUse" x="0" y="0" width="32" height="32">
<rect width="32" height="32" fill="#D9D9D9"/>
</mask>
<g mask="url(#mask0_13157_1126)">
<path d="M17.3667 28.6667C16.1018 28.6667 14.5034 28.494 12.5717 28.1487C10.6401 27.8033 9.10422 27.1965 7.964 26.328C7.32311 25.834 6.65089 25.0619 5.94733 24.0117C5.244 22.9612 4.59956 21.8193 4.014 20.586C3.42867 19.3527 2.94667 18.1193 2.568 16.886C2.18933 15.6527 2 14.6018 2 13.7333C2 11.9898 2.61878 10.5641 3.85633 9.45634C5.09411 8.34879 6.39922 7.34712 7.77167 6.45134C9.05389 5.6189 10.4761 4.89112 12.0383 4.26801C13.6008 3.6449 15.2102 3.33334 16.8667 3.33334C18.4973 3.33334 19.999 3.65812 21.3717 4.30768C22.7443 4.95723 24.0966 5.73845 25.4283 6.65134C25.7446 6.86512 26.1564 7.18568 26.664 7.61301C27.1718 8.04034 27.6718 8.57234 28.164 9.20901C28.6564 9.84568 29.0821 10.5841 29.441 11.4243C29.7999 12.2646 29.9862 13.2111 30 14.264C30.0273 15.8231 29.6927 17.4522 28.996 19.1513C28.2996 20.8505 27.3667 22.4047 26.1973 23.814C25.0282 25.2233 23.6774 26.3845 22.145 27.2973C20.6123 28.2102 19.0196 28.6667 17.3667 28.6667ZM17.3333 26.6667C18.694 26.6667 20.0201 26.2667 21.3117 25.4667C22.603 24.6667 23.7466 23.6542 24.7423 22.4293C25.7381 21.2047 26.5347 19.8646 27.132 18.409C27.7296 16.9535 28.0189 15.5812 28 14.2923C27.9811 12.8617 27.5619 11.6489 26.7423 10.654C25.9228 9.65912 25.1087 8.88557 24.3 8.33334C23.1667 7.55557 21.9958 6.86112 20.7873 6.25001C19.5787 5.6389 18.2718 5.33334 16.8667 5.33334C15.4084 5.33334 13.9661 5.62434 12.5397 6.20634C11.1132 6.78834 9.82222 7.46401 8.66667 8.23334C7.78289 8.81957 6.77867 9.57345 5.654 10.495C4.52911 11.4163 3.96667 12.4513 3.96667 13.6C3.96667 14.3111 4.13889 15.218 4.48333 16.3207C4.82778 17.4231 5.26111 18.532 5.78333 19.6473C6.30556 20.7629 6.86667 21.7929 7.46667 22.7373C8.06667 23.6818 8.62222 24.3471 9.13333 24.7333C9.93333 25.3249 11.1667 25.795 12.8333 26.1437C14.5 26.4923 16 26.6667 17.3333 26.6667ZM13.8 23.6667C14.8973 23.6667 15.805 23.2787 16.523 22.5027C17.241 21.7265 17.6 20.8478 17.6 19.8667C17.6 19.4205 17.5107 18.9799 17.332 18.545C17.1533 18.1099 16.8589 17.7095 16.4487 17.3437C15.9342 16.8735 15.5129 16.3589 15.1847 15.8C14.8564 15.2411 14.6102 14.6223 14.446 13.9437C14.2409 13.0428 13.7939 12.327 13.105 11.7963C12.4161 11.2655 11.6478 11 10.8 11C9.80511 11 8.92311 11.3847 8.154 12.154C7.38467 12.9231 7 13.8051 7 14.8C7 15.624 7.17267 16.5501 7.518 17.5783C7.86333 18.6063 8.34322 19.57 8.95767 20.4693C9.57233 21.3685 10.2937 22.1261 11.1217 22.7423C11.9499 23.3586 12.8427 23.6667 13.8 23.6667ZM13.8 21.6667C13.1744 21.6667 12.5758 21.406 12.004 20.8847C11.432 20.3633 10.9234 19.7411 10.4783 19.018C10.033 18.2949 9.67522 17.5419 9.405 16.759C9.135 15.9761 9 15.3231 9 14.8C9 14.3453 9.18633 13.9317 9.559 13.559C9.93167 13.1863 10.3453 13 10.8 13C11.1264 13 11.4628 13.1137 11.809 13.341C12.1552 13.5683 12.3924 13.9179 12.5207 14.3897C12.748 15.2888 13.0608 16.0957 13.459 16.8103C13.8572 17.5248 14.3991 18.1957 15.0847 18.823C15.2607 18.9768 15.3906 19.1508 15.4743 19.345C15.5581 19.539 15.6 19.7351 15.6 19.9333C15.6 20.3658 15.4368 20.7628 15.1103 21.1243C14.7839 21.4859 14.3471 21.6667 13.8 21.6667ZM21.6667 17C21.9504 17 22.188 16.9042 22.3793 16.7127C22.5709 16.5213 22.6667 16.2838 22.6667 16V15.128L23.4873 15.5383C23.7351 15.6735 23.9907 15.7038 24.254 15.6293C24.5171 15.5551 24.7162 15.4009 24.8513 15.1667C25 14.9325 25.0427 14.6769 24.9793 14.4C24.9162 14.1231 24.7607 13.9215 24.5127 13.795L23.5897 13.3333L24.5127 12.8717C24.7607 12.7368 24.9086 12.5365 24.9563 12.2707C25.0043 12.0047 24.965 11.7478 24.8383 11.5C24.7034 11.2658 24.5064 11.1192 24.2473 11.0603C23.9884 11.0012 23.7351 11.035 23.4873 11.1617L22.6667 11.572V10.6667C22.6667 10.3829 22.5709 10.1453 22.3793 9.95401C22.188 9.76245 21.9504 9.66668 21.6667 9.66668C21.3829 9.66668 21.1453 9.76245 20.954 9.95401C20.7624 10.1453 20.6667 10.3829 20.6667 10.6667V11.5973L19.8667 11.1617C19.6324 11.0266 19.3803 10.9962 19.1103 11.0707C18.8401 11.1449 18.6307 11.2991 18.482 11.5333C18.3556 11.7589 18.3184 12.0136 18.3707 12.2973C18.4227 12.5811 18.5794 12.7795 18.841 12.8923L19.6923 13.2693L18.8797 13.8153C18.6454 13.964 18.489 14.1679 18.4103 14.427C18.3317 14.6859 18.3599 14.9325 18.495 15.1667C18.6299 15.4145 18.8337 15.5721 19.1063 15.6397C19.379 15.7072 19.6324 15.6735 19.8667 15.5383L20.6667 15.1027V16C20.6667 16.2838 20.7624 16.5213 20.954 16.7127C21.1453 16.9042 21.3829 17 21.6667 17Z" fill="#212121"/>
</g>
</svg>
