<svg width="32" height="32" viewBox="0 0 32 32" fill="none" xmlns="http://www.w3.org/2000/svg">
<mask id="mask0_13157_1131" style="mask-type:alpha" maskUnits="userSpaceOnUse" x="0" y="0" width="32" height="32">
<rect width="32" height="32" fill="#D9D9D9"/>
</mask>
<g mask="url(#mask0_13157_1131)">
<path d="M12.5387 27.4614V21.6384C12.2822 21.8041 12.0187 21.9273 11.748 22.0077C11.4773 22.0879 11.1852 22.128 10.8717 22.128C8.78634 22.128 7.03 21.3781 5.60267 19.8784C4.17534 18.3784 3.46167 16.5728 3.46167 14.4617V12.205C3.46167 10.0939 4.17534 8.28836 5.60267 6.78836C7.03 5.28859 8.78634 4.5387 10.8717 4.5387C11.8903 4.5387 12.7561 4.89492 13.469 5.60736C14.1819 6.32003 14.5383 7.18547 14.5383 8.2037C14.5383 9.2217 14.1819 10.0876 13.469 10.8014C12.7561 11.5149 11.8903 11.8717 10.8717 11.8717H8.53867V9.87203H10.8717C11.335 9.87203 11.7287 9.71003 12.0527 9.38603C12.3767 9.06203 12.5387 8.66837 12.5387 8.20503C12.5387 7.74192 12.3767 7.34836 12.0527 7.02436C11.7287 6.70036 11.335 6.53836 10.8717 6.53836C9.35389 6.53836 8.07278 7.09692 7.02834 8.21403C5.98389 9.33114 5.46167 10.6615 5.46167 12.205V14.4617C5.46167 16.0053 5.98389 17.3356 7.02834 18.4527C8.07278 19.5698 9.35389 20.1284 10.8717 20.1284C11.335 20.1284 11.7287 19.9664 12.0527 19.6424C12.3767 19.3184 12.5387 18.9248 12.5387 18.4617C12.5387 17.9984 12.3767 17.6047 12.0527 17.2807C11.7287 16.9567 11.335 16.7947 10.8717 16.7947H8.53867V14.795H10.8717C11.8903 14.795 12.7561 15.1515 13.469 15.8644C14.1819 16.5773 14.5383 17.443 14.5383 18.4617V27.4614H12.5387ZM17.4617 27.4614V18.4617C17.4617 17.443 17.8181 16.5773 18.531 15.8644C19.2439 15.1515 20.1097 14.795 21.1283 14.795H23.4613V16.7947H21.1283C20.665 16.7947 20.2713 16.9567 19.9473 17.2807C19.6233 17.6047 19.4613 17.9984 19.4613 18.4617C19.4613 18.9248 19.6233 19.3184 19.9473 19.6424C20.2713 19.9664 20.665 20.1284 21.1283 20.1284C22.6461 20.1284 23.9272 19.5698 24.9717 18.4527C26.0161 17.3356 26.5383 16.0053 26.5383 14.4617V12.205C26.5383 10.6615 26.0161 9.33114 24.9717 8.21403C23.9272 7.09692 22.6461 6.53836 21.1283 6.53836C20.665 6.53836 20.2713 6.70036 19.9473 7.02436C19.6233 7.34836 19.4613 7.74192 19.4613 8.20503C19.4613 8.66837 19.6233 9.06203 19.9473 9.38603C20.2713 9.71003 20.665 9.87203 21.1283 9.87203H23.4613V11.8717H21.1283C20.1097 11.8717 19.2439 11.5154 18.531 10.8027C17.8181 10.09 17.4617 9.2247 17.4617 8.2067C17.4617 7.1887 17.8181 6.32281 18.531 5.60903C19.2439 4.89548 20.1097 4.5387 21.1283 4.5387C23.2137 4.5387 24.97 5.28859 26.3973 6.78836C27.8247 8.28836 28.5383 10.0939 28.5383 12.205V14.4617C28.5383 16.5728 27.8247 18.3784 26.3973 19.8784C24.97 21.3781 23.2137 22.128 21.1283 22.128C20.8148 22.128 20.5227 22.0879 20.252 22.0077C19.9813 21.9273 19.7178 21.8041 19.4613 21.6384V27.4614H17.4617Z" fill="#212121"/>
</g>
</svg>
