<svg width="32" height="32" viewBox="0 0 32 32" fill="none" xmlns="http://www.w3.org/2000/svg">
<mask id="mask0_13157_1141" style="mask-type:alpha" maskUnits="userSpaceOnUse" x="0" y="0" width="32" height="32">
<rect width="32" height="32" fill="#D9D9D9"/>
</mask>
<g mask="url(#mask0_13157_1141)">
<path d="M12.9999 27.4613C11.935 27.4613 11.0193 27.0926 10.2526 26.355C9.48593 25.6174 9.06416 24.723 8.98727 23.6717C7.76504 23.4854 6.74793 22.9266 5.93593 21.995C5.12393 21.0632 4.71793 19.9709 4.71793 18.718C4.71793 18.2804 4.77482 17.8481 4.8886 17.421C5.00216 16.9939 5.1726 16.5929 5.39993 16.218C5.12993 15.8264 4.92738 15.403 4.79227 14.9477C4.65716 14.4921 4.5896 14.0139 4.5896 13.513C4.5896 12.2339 5.0106 11.1278 5.8526 10.1947C6.69438 9.26156 7.73671 8.71889 8.9796 8.56667C8.97093 8.53244 8.9666 8.49822 8.9666 8.464V8.34867C9.00771 7.27511 9.41838 6.36744 10.1986 5.62567C10.979 4.88389 11.9128 4.513 12.9999 4.513C13.6119 4.513 14.1573 4.63267 14.6359 4.872C15.1146 5.11111 15.5693 5.44956 15.9999 5.88733C16.4255 5.44956 16.8768 5.11111 17.3539 4.872C17.8308 4.63267 18.3795 4.513 18.9999 4.513C20.075 4.513 21.0003 4.88256 21.7756 5.62167C22.5507 6.361 22.9588 7.26322 22.9999 8.32833V8.44367C22.9999 8.47789 22.9956 8.51211 22.9869 8.54633C24.2298 8.69833 25.2777 9.24233 26.1306 10.1783C26.9837 11.1141 27.4103 12.2257 27.4103 13.513C27.4103 14.0139 27.3406 14.4921 27.2013 14.9477C27.0619 15.403 26.8572 15.8264 26.5869 16.218C26.8143 16.5924 26.9869 16.9932 27.1049 17.4203C27.2229 17.8477 27.2819 18.2802 27.2819 18.718C27.2819 19.9931 26.8725 21.0931 26.0536 22.018C25.2349 22.9427 24.2102 23.4939 22.9793 23.6717C22.9024 24.723 22.4862 25.6174 21.7306 26.355C20.975 27.0926 20.0648 27.4613 18.9999 27.4613C18.3846 27.4613 17.8372 27.3451 17.3576 27.1127C16.878 26.8802 16.4255 26.5409 15.9999 26.0947C15.5606 26.5409 15.1025 26.8802 14.6256 27.1127C14.1487 27.3451 13.6068 27.4613 12.9999 27.4613ZM16.9999 8.513V23.4617C16.9999 24.0217 17.1938 24.495 17.5816 24.8817C17.9694 25.2683 18.4439 25.4617 19.0053 25.4617C19.5402 25.4617 19.9986 25.2624 20.3806 24.864C20.7628 24.4658 20.9693 24.0017 20.9999 23.4717C20.4393 23.3539 19.9217 23.1407 19.4473 22.832C18.973 22.5236 18.5633 22.1282 18.2179 21.646C18.047 21.412 17.9826 21.1628 18.0246 20.8983C18.0666 20.6339 18.2054 20.4191 18.4409 20.254C18.6752 20.0829 18.926 20.0184 19.1936 20.0607C19.4614 20.1027 19.6788 20.2414 19.8459 20.477C20.1217 20.8781 20.4727 21.1852 20.8989 21.3983C21.3252 21.6114 21.7862 21.718 22.2819 21.718C23.1179 21.718 23.8269 21.427 24.4089 20.845C24.9909 20.2628 25.2819 19.5538 25.2819 18.718C25.2819 18.5498 25.2657 18.3817 25.2333 18.2137C25.2008 18.0457 25.1495 17.8804 25.0793 17.718C24.7015 17.9744 24.2848 18.171 23.8293 18.3077C23.3737 18.4443 22.9007 18.5127 22.4103 18.5127C22.1269 18.5127 21.8894 18.4169 21.6976 18.2253C21.506 18.0336 21.4103 17.7959 21.4103 17.5123C21.4103 17.229 21.506 16.9916 21.6976 16.8C21.8894 16.6087 22.1269 16.513 22.4103 16.513C23.246 16.513 23.955 16.2219 24.5373 15.6397C25.1193 15.0577 25.4103 14.3488 25.4103 13.513C25.4103 12.6903 25.1235 11.9923 24.5499 11.419C23.9764 10.8457 23.2803 10.5436 22.4616 10.5127C22.234 10.9213 21.9344 11.2778 21.5626 11.582C21.1908 11.8862 20.7759 12.1272 20.3179 12.305C20.0564 12.4041 19.801 12.3959 19.5519 12.2803C19.3028 12.1648 19.1368 11.9748 19.0539 11.7103C18.9684 11.4488 18.9786 11.1919 19.0846 10.9397C19.1906 10.6877 19.3786 10.5189 19.6486 10.4333C20.0504 10.2967 20.376 10.0539 20.6256 9.705C20.8752 9.35633 20.9999 8.95678 20.9999 8.50633C20.9999 7.94989 20.8065 7.47856 20.4196 7.09233C20.0329 6.70589 19.5595 6.51267 18.9993 6.51267C18.439 6.51267 17.9657 6.706 17.5793 7.09267C17.193 7.47933 16.9999 7.95278 16.9999 8.513ZM14.9999 23.4617V8.513C14.9999 7.95278 14.8065 7.47933 14.4196 7.09267C14.0329 6.706 13.5595 6.51267 12.9993 6.51267C12.439 6.51267 11.9657 6.706 11.5793 7.09267C11.193 7.47933 10.9999 7.95278 10.9999 8.513C10.9999 8.94544 11.1213 9.33944 11.3639 9.695C11.6068 10.0506 11.929 10.2967 12.3306 10.4333C12.5922 10.5189 12.7836 10.6856 12.9049 10.9333C13.0263 11.1811 13.0449 11.4368 12.9609 11.7003C12.8603 11.9637 12.6839 12.1529 12.4319 12.268C12.1799 12.3833 11.9188 12.3914 11.6486 12.2923C11.1906 12.1146 10.7757 11.8757 10.4039 11.5757C10.0322 11.2757 9.73249 10.9213 9.50493 10.5127C8.70849 10.5436 8.02349 10.85 7.44993 11.432C6.87638 12.014 6.5896 12.709 6.5896 13.517C6.5896 14.3501 6.8806 15.0577 7.4626 15.6397C8.04482 16.2219 8.75382 16.513 9.5896 16.513C9.87293 16.513 10.1105 16.6088 10.3023 16.8003C10.4938 16.9921 10.5896 17.2298 10.5896 17.5133C10.5896 17.7967 10.4938 18.0341 10.3023 18.2257C10.1105 18.417 9.87293 18.5127 9.5896 18.5127C9.09916 18.5127 8.62615 18.4443 8.1706 18.3077C7.71504 18.171 7.29838 17.9744 6.9206 17.718C6.85038 17.8804 6.79904 18.0457 6.7666 18.2137C6.73416 18.3817 6.71793 18.5498 6.71793 18.718C6.71793 19.5538 7.00893 20.2628 7.59093 20.845C8.17293 21.427 8.88193 21.718 9.71793 21.718C10.2162 21.718 10.677 21.6108 11.1006 21.3963C11.5242 21.1817 11.8753 20.8752 12.1539 20.477C12.321 20.2414 12.5385 20.1027 12.8063 20.0607C13.0738 20.0184 13.3247 20.0807 13.5589 20.2473C13.7932 20.414 13.9316 20.6302 13.9743 20.896C14.0169 21.162 13.9528 21.412 13.7819 21.646C13.4282 22.1282 13.0106 22.527 12.5293 22.8423C12.0482 23.1577 11.5273 23.3743 10.9666 23.4923C10.9973 24.0223 11.2093 24.483 11.6026 24.8743C11.9957 25.2659 12.4597 25.4617 12.9946 25.4617C13.5559 25.4617 14.0305 25.2683 14.4183 24.8817C14.806 24.495 14.9999 24.0217 14.9999 23.4617Z" fill="#212121"/>
</g>
</svg>
