<svg width="50" height="50" viewBox="0 0 50 50" fill="none" xmlns="http://www.w3.org/2000/svg">
<path d="M20.3125 42.9085C18.6486 42.9085 17.2177 42.3323 16.0198 41.1799C14.8219 40.0275 14.1628 38.6299 14.0427 36.9872C12.133 36.6962 10.5438 35.8229 9.275 34.3674C8.00625 32.9115 7.37188 31.2047 7.37188 29.2471C7.37188 28.5634 7.46077 27.8879 7.63854 27.2205C7.81597 26.5531 8.08229 25.9266 8.4375 25.3408C8.01563 24.729 7.69913 24.0674 7.48802 23.3559C7.27691 22.6441 7.17136 21.8969 7.17136 21.1143C7.17136 19.1156 7.82917 17.3873 9.14479 15.9294C10.4601 14.4714 12.0887 13.6235 14.0307 13.3856C14.0172 13.3321 14.0104 13.2787 14.0104 13.2252V13.045C14.0747 11.3676 14.7163 9.94933 15.9354 8.7903C17.1549 7.63127 18.6139 7.05176 20.3125 7.05176C21.2688 7.05176 22.1208 7.23873 22.8688 7.61269C23.6167 7.9863 24.3271 8.51512 25 9.19915C25.6649 8.51512 26.3701 7.9863 27.1156 7.61269C27.8608 7.23873 28.7181 7.05176 29.6875 7.05176C31.3674 7.05176 32.813 7.62919 34.0245 8.78405C35.2356 9.93926 35.8733 11.349 35.9375 13.0132V13.1934C35.9375 13.2469 35.9307 13.3004 35.9172 13.3538C37.8592 13.5913 39.4965 14.4413 40.8292 15.9038C42.1622 17.366 42.8286 19.1028 42.8286 21.1143C42.8286 21.8969 42.7198 22.6441 42.5021 23.3559C42.2844 24.0674 41.9644 24.729 41.5422 25.3408C41.8974 25.9259 42.1672 26.5521 42.3516 27.2195C42.5359 27.8872 42.6281 28.563 42.6281 29.2471C42.6281 31.2394 41.9884 32.9582 40.7089 34.4033C39.4297 35.8481 37.8285 36.7094 35.9052 36.9872C35.7851 38.6299 35.1347 40.0275 33.9542 41.1799C32.7736 42.3323 31.3514 42.9085 29.6875 42.9085C28.726 42.9085 27.8707 42.7269 27.1214 42.3637C26.372 42.0005 25.6649 41.4703 25 40.7731C24.3135 41.4703 23.5977 42.0005 22.8526 42.3637C22.1075 42.7269 21.2608 42.9085 20.3125 42.9085ZM26.5625 13.3018V36.659C26.5625 37.534 26.8655 38.2736 27.4714 38.8778C28.0773 39.482 28.8188 39.784 29.6958 39.784C30.5316 39.784 31.2479 39.4728 31.8448 38.8502C32.442 38.228 32.7646 37.5028 32.8125 36.6747C31.9365 36.4906 31.1278 36.1575 30.3865 35.6752C29.6455 35.1932 29.0052 34.5755 28.4656 33.8221C28.1986 33.4564 28.0979 33.067 28.1635 32.6538C28.2292 32.2406 28.446 31.9051 28.8141 31.6471C29.18 31.3797 29.5721 31.279 29.9901 31.345C30.4085 31.4106 30.7483 31.6275 31.0094 31.9955C31.4403 32.6222 31.9887 33.1021 32.6547 33.4351C33.3207 33.7681 34.041 33.9346 34.8156 33.9346C36.1219 33.9346 37.2297 33.4799 38.1391 32.5705C39.0484 31.6608 39.5031 30.553 39.5031 29.2471C39.5031 28.9842 39.4778 28.7215 39.4271 28.459C39.3764 28.1965 39.2962 27.9384 39.1865 27.6846C38.5962 28.0853 37.9451 28.3924 37.2333 28.6059C36.5215 28.8195 35.7825 28.9262 35.0161 28.9262C34.5734 28.9262 34.2023 28.7766 33.9026 28.4773C33.6033 28.1776 33.4536 27.8063 33.4536 27.3632C33.4536 26.9205 33.6033 26.5495 33.9026 26.2502C34.2023 25.9512 34.5734 25.8018 35.0161 25.8018C36.3221 25.8018 37.4299 25.3469 38.3396 24.4372C39.249 23.5278 39.7036 22.4202 39.7036 21.1143C39.7036 19.8288 39.2556 18.7382 38.3594 17.8424C37.4632 16.9465 36.3755 16.4745 35.0964 16.4262C34.7408 17.0648 34.2726 17.6217 33.6917 18.0971C33.1108 18.5724 32.4625 18.949 31.7469 19.2268C31.3382 19.3816 30.9392 19.3688 30.55 19.1882C30.1608 19.0077 29.9014 18.7108 29.7719 18.2976C29.6382 17.8889 29.6542 17.4875 29.8198 17.0934C29.9854 16.6997 30.2792 16.436 30.701 16.3023C31.3288 16.0887 31.8377 15.7094 32.2276 15.1643C32.6175 14.6195 32.8125 13.9952 32.8125 13.2913C32.8125 12.4219 32.5102 11.6854 31.9057 11.082C31.3016 10.4781 30.5618 10.1762 29.6865 10.1762C28.8111 10.1762 28.0715 10.4783 27.4677 11.0825C26.8642 11.6867 26.5625 12.4264 26.5625 13.3018ZM23.4375 36.659V13.3018C23.4375 12.4264 23.1352 11.6867 22.5307 11.0825C21.9266 10.4783 21.1868 10.1762 20.3115 10.1762C19.4361 10.1762 18.6965 10.4783 18.0927 11.0825C17.4892 11.6867 17.1875 12.4264 17.1875 13.3018C17.1875 13.9775 17.3771 14.5931 17.7563 15.1486C18.1358 15.7042 18.6392 16.0887 19.2667 16.3023C19.6753 16.436 19.9745 16.6964 20.1641 17.0835C20.3536 17.4707 20.3828 17.8702 20.2516 18.282C20.0943 18.6934 19.8188 18.9891 19.425 19.1689C19.0313 19.3492 18.6233 19.3618 18.201 19.207C17.4854 18.9292 16.8372 18.5559 16.2563 18.0872C15.6753 17.6184 15.2071 17.0648 14.8516 16.4262C13.6071 16.4745 12.5368 16.9533 11.6406 17.8627C10.7444 18.7721 10.2964 19.858 10.2964 21.1205C10.2964 22.4222 10.751 23.5278 11.6604 24.4372C12.5701 25.3469 13.678 25.8018 14.9839 25.8018C15.4266 25.8018 15.7977 25.9514 16.0974 26.2507C16.3967 26.5504 16.5464 26.9217 16.5464 27.3648C16.5464 27.8075 16.3967 28.1785 16.0974 28.4778C15.7977 28.7768 15.4266 28.9262 14.9839 28.9262C14.2175 28.9262 13.4785 28.8195 12.7667 28.6059C12.0549 28.3924 11.4038 28.0853 10.8135 27.6846C10.7038 27.9384 10.6236 28.1965 10.5729 28.459C10.5222 28.7215 10.4969 28.9842 10.4969 29.2471C10.4969 30.553 10.9516 31.6608 11.8609 32.5705C12.7703 33.4799 13.8781 33.9346 15.1844 33.9346C15.9628 33.9346 16.683 33.767 17.3448 33.432C18.0066 33.0965 18.5552 32.6177 18.9906 31.9955C19.2517 31.6275 19.5915 31.4106 20.0099 31.345C20.428 31.279 20.82 31.3762 21.1859 31.6367C21.5519 31.8971 21.7682 32.2349 21.8349 32.6502C21.9016 33.0658 21.8014 33.4564 21.5344 33.8221C20.9816 34.5755 20.3292 35.1986 19.5771 35.6913C18.8253 36.184 18.0115 36.5226 17.1354 36.707C17.1833 37.5351 17.5146 38.2549 18.1292 38.8663C18.7434 39.4781 19.4684 39.784 20.3042 39.784C21.1813 39.784 21.9227 39.482 22.5286 38.8778C23.1345 38.2736 23.4375 37.534 23.4375 36.659Z" fill="#6715D3"/>
</svg>
