<svg width="24" height="24" viewBox="0 0 24 24" fill="none" xmlns="http://www.w3.org/2000/svg">
<path d="M4.47513 9.5L5.22513 9.50006V9.5H4.47513ZM19.5249 9.5H18.7749V9.50006L19.5249 9.5ZM19.5679 17.6134L19.855 18.3063H19.855L19.5679 17.6134ZM4.43205 17.6134L4.71909 16.9205H4.71909L4.43205 17.6134ZM20.2144 12.5029L19.5939 12.9242L19.5963 12.9277L20.2144 12.5029ZM21.4701 14.7696L20.7287 14.8827V14.8827L21.4701 14.7696ZM3.78561 12.5029L4.40371 12.9277L4.4061 12.9242L3.78561 12.5029ZM2.52992 14.7696L1.7885 14.6565H1.7885L2.52992 14.7696ZM8.72484 18.8074C8.61845 18.4071 8.20769 18.1688 7.80737 18.2752C7.40705 18.3815 7.16877 18.7923 7.27516 19.1926L8 19L8.72484 18.8074ZM16.7248 19.1926C16.8312 18.7923 16.5929 18.3815 16.1926 18.2752C15.7923 18.1688 15.3815 18.4071 15.2752 18.8074L16 19L16.7248 19.1926ZM19.5679 17.6134L19.2809 16.9206C15.0019 18.6932 8.99806 18.6932 4.71909 16.9205L4.43205 17.6134L4.14501 18.3063C8.79156 20.2312 15.2084 20.2312 19.855 18.3063L19.5679 17.6134ZM19.5249 9.5H20.2749C20.2749 4.94131 16.5677 1.25 12 1.25V2V2.75C15.744 2.75 18.7749 5.77442 18.7749 9.5H19.5249ZM4.47513 9.5H5.22513C5.22513 5.77442 8.256 2.75 12 2.75V2V1.25C7.43226 1.25 3.72513 4.94131 3.72513 9.5H4.47513ZM4.43205 17.6134L4.71909 16.9205C3.7102 16.5026 3.13339 15.7871 3.27135 14.8827L2.52992 14.7696L1.7885 14.6565C1.50115 16.5402 2.82579 17.7598 4.14502 18.3063L4.43205 17.6134ZM19.5679 17.6134L19.855 18.3063C21.1742 17.7598 22.4989 16.5402 22.2115 14.6565L21.4701 14.7696L20.7287 14.8827C20.8666 15.7871 20.2898 16.5026 19.2809 16.9206L19.5679 17.6134ZM20.2144 12.5029L20.8349 12.0816C20.3462 11.3619 20.275 10.5612 20.2749 9.49994L19.5249 9.5L18.7749 9.50006C18.775 10.5825 18.8284 11.7967 19.5939 12.9242L20.2144 12.5029ZM3.78561 12.5029L4.4061 12.9242C5.17165 11.7967 5.22503 10.5825 5.22513 9.50006L4.47513 9.5L3.72513 9.49994C3.72504 10.5612 3.6538 11.3619 3.16511 12.0816L3.78561 12.5029ZM3.78561 12.5029L3.16751 12.0781C2.98227 12.3476 2.62967 12.8051 2.39502 13.1727C2.13278 13.5836 1.87658 14.0791 1.7885 14.6565L2.52992 14.7696L3.27135 14.8827C3.31396 14.6034 3.44621 14.3138 3.65945 13.9797C3.90028 13.6024 4.11018 13.3548 4.4037 12.9277L3.78561 12.5029ZM20.2144 12.5029L19.5963 12.9277C19.8898 13.3548 20.0997 13.6024 20.3405 13.9797C20.5538 14.3138 20.686 14.6034 20.7287 14.8827L21.4701 14.7696L22.2115 14.6565C22.1234 14.0791 21.8672 13.5836 21.605 13.1727C21.3703 12.8051 21.0177 12.3476 20.8325 12.0781L20.2144 12.5029ZM12 22V21.25C10.4092 21.25 9.09438 20.1979 8.72484 18.8074L8 19L7.27516 19.1926C7.82259 21.2525 9.74183 22.75 12 22.75V22ZM16 19L15.2752 18.8074C14.9056 20.1979 13.5908 21.25 12 21.25V22V22.75C14.2582 22.75 16.1774 21.2525 16.7248 19.1926L16 19Z" fill="white"/>
</svg>
