<svg width="20" height="20" viewBox="0 0 20 20" fill="none" xmlns="http://www.w3.org/2000/svg">
<path d="M16.8251 11.7167L15.8834 10.15C15.6751 9.80834 15.4918 9.15 15.4918 8.75V7.19167C15.4918 4.16667 13.0334 1.70834 10.0168 1.70834C6.99175 1.71667 4.53342 4.16667 4.53342 7.19167V8.74167C4.53342 9.14167 4.35009 9.8 4.15009 10.1417L3.20842 11.7083C2.85009 12.3167 2.76675 13.0083 2.99175 13.6083C3.21675 14.2167 3.72509 14.7 4.39175 14.9167C5.29175 15.2167 6.20009 15.4333 7.12509 15.5917C7.21675 15.6083 7.30842 15.6167 7.40009 15.6333C7.51675 15.65 7.64175 15.6667 7.76675 15.6833C7.98342 15.7167 8.20009 15.7417 8.42509 15.7583C8.95009 15.8083 9.48342 15.8333 10.0168 15.8333C10.5418 15.8333 11.0668 15.8083 11.5834 15.7583C11.7751 15.7417 11.9668 15.725 12.1501 15.7C12.3001 15.6833 12.4501 15.6667 12.6001 15.6417C12.6918 15.6333 12.7834 15.6167 12.8751 15.6C13.8084 15.45 14.7334 15.2167 15.6334 14.9167C16.2751 14.7 16.7668 14.2167 17.0001 13.6C17.2334 12.975 17.1668 12.2917 16.8251 11.7167ZM10.6251 8.33334C10.6251 8.68334 10.3418 8.96667 9.99175 8.96667C9.64175 8.96667 9.35842 8.68334 9.35842 8.33334V5.75C9.35842 5.4 9.64175 5.11667 9.99175 5.11667C10.3418 5.11667 10.6251 5.4 10.6251 5.75V8.33334Z" fill="#212121"/>
<path d="M12.3582 16.675C12.0082 17.6417 11.0832 18.3333 9.9999 18.3333C9.34157 18.3333 8.69157 18.0667 8.23324 17.5917C7.96657 17.3417 7.76657 17.0083 7.6499 16.6667C7.75824 16.6833 7.86657 16.6917 7.98324 16.7083C8.1749 16.7333 8.3749 16.7583 8.5749 16.775C9.0499 16.8167 9.53324 16.8417 10.0166 16.8417C10.4916 16.8417 10.9666 16.8167 11.4332 16.775C11.6082 16.7583 11.7832 16.75 11.9499 16.725C12.0832 16.7083 12.2166 16.6917 12.3582 16.675Z" fill="#212121"/>
</svg>
