<svg width="50" height="50" viewBox="0 0 50 50" fill="none" xmlns="http://www.w3.org/2000/svg">
<path d="M6.79115 22.3958V19.2708H10.4328C11.4398 16.8083 12.9603 14.7343 14.9943 13.0489C17.028 11.3635 19.3483 10.2672 21.9552 9.75987L20.0563 7.82861L22.2516 5.6333L25.1563 8.5656C25.4795 8.88886 25.6886 9.27358 25.7833 9.71976C25.8781 10.1656 25.8587 10.5996 25.725 11.0218C25.5917 11.4652 25.3526 11.831 25.0078 12.1192C24.6634 12.4078 24.2629 12.5734 23.8063 12.6161C21.1965 12.8512 18.9335 13.7786 17.0172 15.3984C15.1009 17.0185 13.7887 18.9717 13.0807 21.2578L12.7443 22.3958H6.79115ZM31.4302 25C31.4302 23.4989 31.7401 22.0774 32.3599 20.7354C32.9793 19.393 33.8981 18.3934 35.1162 17.7364C34.2776 16.5746 33.3188 15.6003 32.2396 14.8135C31.1604 14.0271 29.9517 13.4361 28.6136 13.0406L29.5109 10.0323C31.5168 10.617 33.2764 11.5411 34.7896 12.8047C36.3028 14.0679 37.5734 15.6423 38.6016 17.5281C39.9797 18.0354 41.0387 18.9863 41.7787 20.3807C42.5186 21.7748 42.8885 23.3146 42.8885 25C42.8885 26.6187 42.5353 28.1305 41.8287 29.5354C41.1224 30.9402 40.0467 31.9258 38.6016 32.4922C37.6134 34.3376 36.3354 35.9021 34.7677 37.1854C33.1997 38.4687 31.4234 39.4029 29.4391 39.988L28.5417 36.9791C29.8719 36.5705 31.0972 35.9694 32.2177 35.176C33.3382 34.383 34.3043 33.4121 35.1162 32.2635C33.9651 31.6198 33.063 30.6335 32.4099 29.3047C31.7568 27.9758 31.4302 26.5409 31.4302 25ZM37.1594 29.6875C37.8139 29.6875 38.4115 29.2054 38.9521 28.2411C39.4931 27.2769 39.7636 26.1965 39.7636 25C39.7636 23.7767 39.4965 22.6896 38.9625 21.7385C38.4281 20.7878 37.8271 20.3125 37.1594 20.3125C36.4917 20.3125 35.8908 20.7878 35.3568 21.7385C34.8224 22.6896 34.5552 23.7767 34.5552 25C34.5552 26.1965 34.8257 27.2769 35.3667 28.2411C35.9073 29.2054 36.5049 29.6875 37.1594 29.6875ZM22.1313 44.5271L19.9359 42.2994L21.9953 40.2401C19.3884 39.7328 17.0627 38.6364 15.0182 36.951C12.9734 35.2656 11.4583 33.1916 10.4729 30.7291H6.83074V27.6041H12.7844L13.1208 28.7422C13.8288 31.0283 15.141 32.9814 17.0573 34.6015C18.9736 36.2213 21.2366 37.1488 23.8464 37.3838C24.303 37.4265 24.7035 37.5975 25.0479 37.8968C25.3927 38.1958 25.6318 38.5562 25.7651 38.9781C25.8988 39.4003 25.9182 39.8291 25.8234 40.2646C25.7287 40.6996 25.5196 41.0788 25.1964 41.4021L22.1313 44.5271Z" fill="#6715D3"/>
</svg>
