<svg width="24" height="24" viewBox="0 0 24 24" fill="none" xmlns="http://www.w3.org/2000/svg">
<mask id="mask0_13157_1096" style="mask-type:alpha" maskUnits="userSpaceOnUse" x="0" y="0" width="24" height="24">
<rect width="24" height="24" fill="#D9D9D9"/>
</mask>
<g mask="url(#mask0_13157_1096)">
<path d="M15.2797 18.6818C14.6318 18.0336 14.3077 17.2423 14.3077 16.3078C14.3077 15.3731 14.6318 14.5818 15.2797 13.9338C15.9279 13.2856 16.7193 12.9615 17.6538 12.9615C18.5884 12.9615 19.3797 13.2856 20.0278 13.9338C20.6759 14.5818 21 15.3731 21 16.3078C21 17.2423 20.6759 18.0336 20.0278 18.6818C19.3797 19.3298 18.5884 19.6538 17.6538 19.6538C16.7193 19.6538 15.9279 19.3298 15.2797 18.6818ZM18.9587 17.6135C19.3196 17.2532 19.5 16.8183 19.5 16.3088C19.5 15.7991 19.3198 15.3638 18.9595 15.0028C18.5993 14.6419 18.1644 14.4615 17.6547 14.4615C17.1451 14.4615 16.7098 14.6417 16.349 15.002C15.9882 15.3622 15.8077 15.7971 15.8077 16.3068C15.8077 16.8164 15.9878 17.2517 16.348 17.6125C16.7083 17.9733 17.1433 18.1538 17.6528 18.1538C18.1624 18.1538 18.5977 17.9737 18.9587 17.6135ZM4.5 17.0578V15.5578H12.1155V17.0578H4.5ZM3.97225 10.0663C3.32408 9.41825 3 8.62692 3 7.69225C3 6.75775 3.32408 5.96642 3.97225 5.31825C4.62025 4.67025 5.41158 4.34625 6.34625 4.34625C7.28075 4.34625 8.07208 4.67025 8.72025 5.31825C9.36825 5.96642 9.69225 6.75775 9.69225 7.69225C9.69225 8.62692 9.36825 9.41825 8.72025 10.0663C8.07208 10.7144 7.28075 11.0385 6.34625 11.0385C5.41158 11.0385 4.62025 10.7144 3.97225 10.0663ZM7.651 8.998C8.01183 8.63784 8.19225 8.20292 8.19225 7.69325C8.19225 7.18359 8.01217 6.74834 7.652 6.3875C7.29167 6.02667 6.85675 5.84625 6.34725 5.84625C5.83758 5.84625 5.40225 6.02634 5.04125 6.3865C4.68042 6.74684 4.5 7.18175 4.5 7.69125C4.5 8.20092 4.68017 8.63625 5.0405 8.99725C5.40067 9.35809 5.83558 9.5385 6.34525 9.5385C6.85492 9.5385 7.29017 9.35834 7.651 8.998ZM11.8845 8.44225V6.94225H19.5V8.44225H11.8845Z" fill="#212121"/>
</g>
</svg>
