<svg width="20" height="20" viewBox="0 0 20 20" fill="none" xmlns="http://www.w3.org/2000/svg">
<path d="M11.1735 13.8897C11.1735 13.8897 11.6943 13.8897 12.2152 15.0008C12.2152 15.0008 13.8696 12.2231 15.3402 11.6675M14.1195 5.83415H14.127M9.95282 5.83415H9.96032M5.78612 5.83415H5.79361M6.5766 9.97333H4.1737C2.7891 9.97333 1.66666 8.85408 1.66666 7.47335V4.16504C1.66666 2.78432 2.7891 1.66504 4.1737 1.66504H15.8263C17.2109 1.66504 18.3333 2.78432 18.3333 4.16504V7.60746M18.333 13.3342C18.333 10.5727 16.0881 8.33416 13.3189 8.33416C10.5497 8.33416 8.30484 10.5727 8.30484 13.3342C8.30484 16.0956 10.5497 18.3342 13.3189 18.3342C16.0881 18.3342 18.333 16.0956 18.333 13.3342Z" stroke="#525252" stroke-width="1.5" stroke-linecap="round" stroke-linejoin="round"/>
</svg>
