<svg width="50" height="50" viewBox="0 0 50 50" fill="none" xmlns="http://www.w3.org/2000/svg">
<path d="M7.29166 39.9839V32.6922C7.29166 30.0908 8.20381 27.878 10.0281 26.0536C11.8524 24.2293 14.0653 23.3172 16.6667 23.3172H39.0104C40.0399 23.3172 40.9135 23.6682 41.6312 24.3703C42.3493 25.0727 42.7083 25.937 42.7083 26.963C42.7083 27.8123 42.4519 28.5656 41.9391 29.2229C41.4262 29.8799 40.7731 30.3205 39.9797 30.5448L34.575 32.051V40.024C34.575 40.6851 34.4264 41.2833 34.1292 41.8187C33.8319 42.3538 33.4331 42.7944 32.9328 43.1406C32.4286 43.4861 31.8772 43.6981 31.2786 43.7766C30.68 43.855 30.0641 43.767 29.4307 43.5125L20.4568 39.9839H7.29166ZM31.4505 33.7339H19.3307C18.9811 33.7339 18.7021 33.8434 18.4937 34.0625C18.2854 34.2816 18.1705 34.538 18.1489 34.8318C18.1278 35.072 18.1805 35.3036 18.3073 35.5266C18.434 35.7498 18.6417 35.9161 18.9302 36.0255L30.5687 40.625C30.7826 40.7052 30.983 40.6818 31.1698 40.5547C31.3569 40.428 31.4505 40.251 31.4505 40.024V33.7339ZM10.4167 36.8589H15.9333C15.6639 36.6106 15.445 36.321 15.2766 35.9901C15.1081 35.6595 15.0239 35.3014 15.0239 34.9156C15.0239 33.7372 15.447 32.7247 16.2932 31.8781C17.1397 31.0319 18.1522 30.6089 19.3307 30.6089H27.7005L39.1667 27.5359C39.3403 27.4665 39.4618 27.3797 39.5312 27.2755C39.6007 27.1714 39.618 27.0498 39.5833 26.9109C39.5486 26.772 39.4878 26.6592 39.401 26.5724C39.3142 26.4856 39.184 26.4422 39.0104 26.4422H16.6667C14.9305 26.4422 13.4549 27.0498 12.2396 28.2651C11.0243 29.4804 10.4167 30.9561 10.4167 32.6922V36.8589ZM20.8333 20.8333C18.8281 20.8333 17.1116 20.1194 15.6838 18.6917C14.2557 17.2635 13.5417 15.5469 13.5417 13.5417C13.5417 11.5365 14.2557 9.81997 15.6838 8.39219C17.1116 6.96406 18.8281 6.25 20.8333 6.25C22.8385 6.25 24.555 6.96406 25.9828 8.39219C27.4109 9.81997 28.125 11.5365 28.125 13.5417C28.125 15.5469 27.4109 17.2635 25.9828 18.6917C24.555 20.1194 22.8385 20.8333 20.8333 20.8333ZM20.8333 17.7083C21.9792 17.7083 22.9601 17.3003 23.776 16.4844C24.592 15.6684 25 14.6875 25 13.5417C25 12.3958 24.592 11.4149 23.776 10.599C22.9601 9.78299 21.9792 9.375 20.8333 9.375C19.6875 9.375 18.7066 9.78299 17.8906 10.599C17.0746 11.4149 16.6667 12.3958 16.6667 13.5417C16.6667 14.6875 17.0746 15.6684 17.8906 16.4844C18.7066 17.3003 19.6875 17.7083 20.8333 17.7083Z" fill="#6715D3"/>
</svg>
