<svg width="50" height="50" viewBox="0 0 50 50" fill="none" xmlns="http://www.w3.org/2000/svg">
<path d="M23.4375 43.229V26.6947C21.349 26.6947 19.3471 26.2993 17.4318 25.5087C15.5169 24.7181 13.8248 23.5882 12.3557 22.1191C10.887 20.65 9.76598 18.954 8.99272 17.0311C8.21946 15.1082 7.83282 13.1037 7.83282 11.0176V7.89258H10.9578C13.0075 7.89258 14.992 8.29188 16.9115 9.09049C18.8313 9.88876 20.5231 11.0212 21.987 12.4879C23.0769 13.5778 23.971 14.7952 24.6693 16.14C25.3679 17.4848 25.8681 18.9131 26.1698 20.4249C26.4101 20.0082 26.6778 19.6134 26.9729 19.2405C27.2681 18.8679 27.5974 18.5 27.9609 18.1368C29.428 16.6702 31.1233 15.5377 33.0469 14.7395C34.9705 13.9408 36.9757 13.5415 39.0625 13.5415H42.1875V16.6665C42.1875 18.7537 41.788 20.7592 40.9891 22.6832C40.1901 24.6072 39.057 26.303 37.5896 27.7707C36.1222 29.2381 34.4398 30.3584 32.5422 31.1316C30.6443 31.9049 28.6511 32.2915 26.5625 32.2915V43.229H23.4375ZM23.4578 23.5176C23.4578 21.8509 23.1366 20.2624 22.4943 18.752C21.8519 17.2415 20.9405 15.896 19.7599 14.7155C18.5794 13.5349 17.2339 12.6235 15.7235 11.9811C14.213 11.3388 12.6245 11.0176 10.9578 11.0176C10.9578 12.6842 11.2703 14.2815 11.8953 15.8092C12.5203 17.337 13.4231 18.6912 14.6037 19.8717C15.7842 21.0523 17.1384 21.9551 18.6662 22.5801C20.1939 23.2051 21.7912 23.5176 23.4578 23.5176ZM26.5625 29.1665C28.2292 29.1665 29.8177 28.854 31.3281 28.229C32.8386 27.604 34.184 26.7013 35.3646 25.5207C36.5452 24.3401 37.4566 22.986 38.099 21.4582C38.7413 19.9304 39.0625 18.3332 39.0625 16.6665C37.3958 16.6665 35.7986 16.9877 34.2708 17.6301C32.7431 18.2724 31.3889 19.1839 30.2083 20.3645C29.0278 21.545 28.125 22.8905 27.5 24.4009C26.875 25.9113 26.5625 27.4999 26.5625 29.1665Z" fill="#6715D3"/>
</svg>
