<svg width="24" height="24" viewBox="0 0 24 24" fill="none" xmlns="http://www.w3.org/2000/svg">
<path d="M5.06107 21.0451L5.50191 20.4383L5.06107 21.0451ZM3.95491 19.9389L4.56168 19.4981L3.95491 19.9389ZM20.0451 19.9389L19.4383 19.4981L20.0451 19.9389ZM18.9389 21.0451L18.4981 20.4383L18.9389 21.0451ZM18.9389 2.95491L18.4981 3.56168L18.9389 2.95491ZM20.0451 4.06107L19.4383 4.50191L20.0451 4.06107ZM5.06107 2.95491L5.50191 3.56168L5.06107 2.95491ZM3.95491 4.06107L4.56168 4.50191L3.95491 4.06107ZM11.4076 7.38235L12.0969 7.67779V7.67779L11.4076 7.38235ZM12.5924 7.38235L11.9031 7.67779L12.5924 7.38235ZM9.85714 11L9.16778 10.7046L9.85714 11ZM8.31064 12.7046C8.14747 13.0853 8.32384 13.5262 8.70456 13.6894C9.08528 13.8525 9.52619 13.6762 9.68936 13.2954L9 13L8.31064 12.7046ZM14.3106 13.2954C14.4738 13.6762 14.9147 13.8525 15.2954 13.6894C15.6762 13.5262 15.8525 13.0853 15.6894 12.7046L15 13L14.3106 13.2954ZM8 16.25C7.58579 16.25 7.25 16.5858 7.25 17C7.25 17.4142 7.58579 17.75 8 17.75V17V16.25ZM16 17.75C16.4142 17.75 16.75 17.4142 16.75 17C16.75 16.5858 16.4142 16.25 16 16.25V17V17.75ZM21 11H20.25V13H21H21.75V11H21ZM3 13H3.75V11H3H2.25V13H3ZM12 22V21.25C10.1084 21.25 8.74999 21.249 7.69804 21.135C6.66013 21.0225 6.00992 20.8074 5.50191 20.4383L5.06107 21.0451L4.62023 21.6518C5.42656 22.2377 6.37094 22.5 7.53648 22.6263C8.68798 22.751 10.1418 22.75 12 22.75V22ZM3 13H2.25C2.25 14.8582 2.24897 16.312 2.37373 17.4635C2.50001 18.6291 2.76232 19.5734 3.34815 20.3798L3.95491 19.9389L4.56168 19.4981C4.19259 18.9901 3.97745 18.3399 3.865 17.302C3.75103 16.25 3.75 14.8916 3.75 13H3ZM5.06107 21.0451L5.50191 20.4383C5.14111 20.1762 4.82382 19.8589 4.56168 19.4981L3.95491 19.9389L3.34815 20.3798C3.70281 20.8679 4.13209 21.2972 4.62023 21.6518L5.06107 21.0451ZM21 13H20.25C20.25 14.8916 20.249 16.25 20.135 17.302C20.0225 18.3399 19.8074 18.9901 19.4383 19.4981L20.0451 19.9389L20.6518 20.3798C21.2377 19.5734 21.5 18.6291 21.6263 17.4635C21.751 16.312 21.75 14.8582 21.75 13H21ZM12 22V22.75C13.8582 22.75 15.312 22.751 16.4635 22.6263C17.6291 22.5 18.5734 22.2377 19.3798 21.6518L18.9389 21.0451L18.4981 20.4383C17.9901 20.8074 17.3399 21.0225 16.302 21.135C15.25 21.249 13.8916 21.25 12 21.25V22ZM20.0451 19.9389L19.4383 19.4981C19.1762 19.8589 18.8589 20.1762 18.4981 20.4383L18.9389 21.0451L19.3798 21.6518C19.8679 21.2972 20.2972 20.8679 20.6518 20.3798L20.0451 19.9389ZM12 2V2.75C13.8916 2.75 15.25 2.75103 16.302 2.865C17.3399 2.97745 17.9901 3.19259 18.4981 3.56168L18.9389 2.95491L19.3798 2.34815C18.5734 1.76232 17.6291 1.50001 16.4635 1.37373C15.312 1.24897 13.8582 1.25 12 1.25V2ZM21 11H21.75C21.75 9.14184 21.751 7.68798 21.6263 6.53648C21.5 5.37094 21.2377 4.42656 20.6518 3.62023L20.0451 4.06107L19.4383 4.50191C19.8074 5.00992 20.0225 5.66013 20.135 6.69804C20.249 7.74999 20.25 9.10843 20.25 11H21ZM18.9389 2.95491L18.4981 3.56168C18.8589 3.82382 19.1762 4.14111 19.4383 4.50191L20.0451 4.06107L20.6518 3.62023C20.2972 3.13209 19.8679 2.70281 19.3798 2.34815L18.9389 2.95491ZM12 2V1.25C10.1418 1.25 8.68798 1.24897 7.53648 1.37373C6.37094 1.50001 5.42656 1.76232 4.62023 2.34815L5.06107 2.95491L5.50191 3.56168C6.00992 3.19259 6.66013 2.97745 7.69804 2.865C8.74999 2.75103 10.1084 2.75 12 2.75V2ZM3 11H3.75C3.75 9.10843 3.75103 7.74999 3.865 6.69804C3.97745 5.66013 4.19259 5.00992 4.56168 4.50191L3.95491 4.06107L3.34815 3.62023C2.76232 4.42656 2.50001 5.37094 2.37373 6.53648C2.24897 7.68798 2.25 9.14184 2.25 11H3ZM5.06107 2.95491L4.62023 2.34815C4.13209 2.70281 3.70281 3.13209 3.34815 3.62023L3.95491 4.06107L4.56168 4.50191C4.82382 4.14111 5.14111 3.82382 5.50191 3.56168L5.06107 2.95491ZM12 7V6.25C11.4524 6.25 10.9402 6.56898 10.7182 7.08691L11.4076 7.38235L12.0969 7.67779C12.0733 7.73286 12.0288 7.75 12 7.75V7ZM12 7V7.75C11.9712 7.75 11.9267 7.73286 11.9031 7.67779L12.5924 7.38235L13.2818 7.08691C13.0598 6.56898 12.5476 6.25 12 6.25V7ZM11.4076 7.38235L10.7182 7.08691L9.16778 10.7046L9.85714 11L10.5465 11.2954L12.0969 7.67779L11.4076 7.38235ZM9.85714 11L9.16778 10.7046L8.31064 12.7046L9 13L9.68936 13.2954L10.5465 11.2954L9.85714 11ZM15 13L15.6894 12.7046L14.8322 10.7046L14.1429 11L13.4535 11.2954L14.3106 13.2954L15 13ZM14.1429 11L14.8322 10.7046L13.2818 7.08691L12.5924 7.38235L11.9031 7.67779L13.4535 11.2954L14.1429 11ZM9.85714 11V11.75H14.1429V11V10.25H9.85714V11ZM8 17V17.75H16V17V16.25H8V17Z" fill="white"/>
</svg>
