<svg width="24" height="24" viewBox="0 0 24 24" fill="none" xmlns="http://www.w3.org/2000/svg">
<path d="M18.0303 16.9697C17.7374 16.6768 17.2626 16.6768 16.9697 16.9697C16.6768 17.2626 16.6768 17.7374 16.9697 18.0303L18.0303 16.9697ZM16.9697 18.0303L21.4697 22.5303L22.5303 21.4697L18.0303 16.9697L16.9697 18.0303ZM20.75 11C20.75 5.61522 16.3848 1.25 11 1.25V2.75C15.5563 2.75 19.25 6.44365 19.25 11H20.75ZM11 1.25C5.61522 1.25 1.25 5.61522 1.25 11H2.75C2.75 6.44365 6.44365 2.75 11 2.75V1.25ZM1.25 11C1.25 16.3848 5.61522 20.75 11 20.75V19.25C6.44365 19.25 2.75 15.5563 2.75 11H1.25ZM11 20.75C16.3848 20.75 20.75 16.3848 20.75 11H19.25C19.25 15.5563 15.5563 19.25 11 19.25V20.75Z" fill="#525252"/>
</svg>
