<svg width="20" height="20" viewBox="0 0 20 20" fill="none" xmlns="http://www.w3.org/2000/svg">
<path d="M8.88939 10.1314L8.6868 10.8535H8.6868L8.88939 10.1314ZM10.2178 11.5647L9.48532 11.7258L10.2178 11.5647ZM12.6679 17.916L12.701 17.1668L12.6679 17.916ZM2.08338 7.12551L2.83337 7.12067L2.08338 7.12551ZM17.5398 2.54378L16.9902 3.05413V3.05413L17.5398 2.54378ZM9.05301 9.88599C8.76012 10.1789 8.76012 10.6538 9.05301 10.9467C9.34591 11.2395 9.82078 11.2395 10.1137 10.9467L9.05301 9.88599ZM13.0303 8.02999C13.3232 7.73709 13.3232 7.26222 13.0303 6.96933C12.7374 6.67643 12.2626 6.67643 11.9697 6.96933L13.0303 8.02999ZM1.3334 7.13034C1.33903 8.0033 1.93405 8.60834 2.53434 9.00099C3.14921 9.40317 3.94393 9.70284 4.724 9.93546C5.51406 10.1711 6.34359 10.3533 7.05362 10.5004C7.78882 10.6527 8.35148 10.7594 8.6868 10.8535L9.09199 9.40927C8.69017 9.29654 8.0351 9.1719 7.35795 9.0316C6.65565 8.88608 5.87821 8.71438 5.15265 8.49801C4.4171 8.27867 3.78754 8.02832 3.35544 7.74568C2.90876 7.45351 2.83413 7.23891 2.83337 7.12067L1.3334 7.13034ZM10.9503 11.4037C10.8438 10.9194 10.7005 10.4506 10.3593 10.0827C10.0145 9.71098 9.55948 9.54043 9.09199 9.40927L8.6868 10.8535C9.10587 10.9711 9.2128 11.0524 9.25951 11.1027C9.30978 11.1569 9.38738 11.2804 9.48532 11.7258L10.9503 11.4037ZM2.83337 7.12067C2.8342 7.25063 2.77648 7.29134 2.83109 7.21988C2.87769 7.15889 2.97106 7.06333 3.13239 6.93693C3.45298 6.68576 3.94361 6.38842 4.57829 6.06582C5.84017 5.42442 7.56344 4.7372 9.35653 4.16002C11.151 3.58239 12.9805 3.12625 14.455 2.93286C15.1949 2.83581 15.8144 2.80921 16.2821 2.8543C16.7854 2.9028 16.9585 3.01999 16.9902 3.05413L18.0894 2.03344C17.6673 1.57891 17.0168 1.41816 16.426 1.36121C15.7998 1.30085 15.055 1.3413 14.2599 1.4456C12.6643 1.65488 10.7411 2.13855 8.89692 2.73217C7.05137 3.32623 5.25016 4.04167 3.89861 4.72865C3.22658 5.07023 2.63827 5.41851 2.20729 5.75617C1.99285 5.92418 1.79227 6.10885 1.63925 6.3091C1.49421 6.49889 1.33115 6.78187 1.3334 7.13034L2.83337 7.12067ZM12.6348 18.6653C12.9897 18.681 13.2788 18.5189 13.4675 18.3787C13.6678 18.23 13.8525 18.0333 14.0202 17.8239C14.3575 17.4025 14.7086 16.8238 15.0551 16.1616C15.7523 14.8293 16.4888 13.0464 17.1114 11.2146C17.7337 9.38366 18.2535 7.47076 18.5042 5.87754C18.6292 5.08338 18.692 4.34016 18.6571 3.71338C18.6244 3.1247 18.4987 2.47424 18.0894 2.03344L16.9902 3.05413C17.0237 3.09022 17.1307 3.28014 17.1595 3.79671C17.1861 4.27519 17.1393 4.90211 17.0224 5.64435C16.7896 7.12392 16.2973 8.94884 15.6912 10.7319C15.0855 12.514 14.3775 14.2212 13.7261 15.4661C13.3983 16.0925 13.0991 16.5743 12.8492 16.8865C12.7232 17.0438 12.6301 17.1322 12.5731 17.1746C12.5046 17.2254 12.5571 17.1604 12.701 17.1668L12.6348 18.6653ZM9.48532 11.7258C9.9437 13.8104 10.3017 15.4392 10.6838 16.5464C10.8743 17.0983 11.0923 17.5878 11.3742 17.9537C11.6702 18.3379 12.0836 18.641 12.6348 18.6653L12.701 17.1668C12.6975 17.1666 12.6958 17.1674 12.684 17.1603C12.6668 17.1499 12.6245 17.1187 12.5624 17.0382C12.4303 16.8667 12.2756 16.5608 12.1017 16.057C11.7551 15.0528 11.4178 13.5294 10.9503 11.4037L9.48532 11.7258ZM10.1137 10.9467L13.0303 8.02999L11.9697 6.96933L9.05301 9.88599L10.1137 10.9467Z" fill="white"/>
</svg>
