<svg width="20" height="20" viewBox="0 0 20 20" fill="none" xmlns="http://www.w3.org/2000/svg">
<path d="M16.1811 13.0944C19.4733 8.91983 18.5839 4.77923 16.2188 3.32846C13.9841 1.95769 12.0337 2.51009 10.862 3.39001L9.99983 4.03465M16.1811 13.0944C15.3908 14.0963 14.3597 15.1003 13.0504 16.0695C11.7619 17.0232 11.1177 17.5 10 17.5C8.88233 17.5 8.2381 17.0232 6.94961 16.0695C0.184767 11.0624 0.848392 5.12744 3.7812 3.32846C6.01591 1.95769 7.96635 2.51009 9.138 3.39001L9.99983 4.03465M16.1811 13.0944L11.5768 7.87066C11.3883 7.65683 11.0728 7.6108 10.831 7.76187L9.00925 8.9005C8.36817 9.30117 7.53612 9.211 6.99575 8.68225C6.28198 7.98385 6.35399 6.81474 7.14808 6.20922L9.99983 4.03465" stroke="#525252" stroke-width="1.5" stroke-linecap="round" stroke-linejoin="round"/>
</svg>
