<svg width="24" height="24" viewBox="0 0 24 24" fill="none" xmlns="http://www.w3.org/2000/svg">
<path d="M3.91891 17.1862C3.48891 16.8851 3.1149 16.5111 2.81382 16.0811C2 14.9188 2 13.2792 2 10C2 6.72077 2 5.08116 2.81382 3.91891C3.1149 3.48891 3.48891 3.1149 3.91891 2.81382C5.08116 2 6.72077 2 10 2H14C17.2792 2 18.9188 2 20.0811 2.81382C20.5111 3.1149 20.8851 3.48891 21.1862 3.91891C22 5.08116 22 6.72077 22 10C22 13.2792 22 14.9188 21.1862 16.0811C20.8851 16.5111 20.5111 16.8851 20.0811 17.1862M7 22H17M12.0253 12.0005V22M12.0253 12.0005C11.8627 11.9938 11.6991 12.0519 11.5533 12.1749C10.6469 12.9401 9 14.9289 9 14.9289M12.0253 12.0005C12.1711 12.0066 12.3162 12.0648 12.4468 12.1751C13.3531 12.9404 15 14.9289 15 14.9289" stroke="white" stroke-width="1.5" stroke-linecap="round"/>
</svg>
