<svg width="20" height="20" viewBox="0 0 20 20" fill="none" xmlns="http://www.w3.org/2000/svg">
<g clip-path="url(#clip0_29206_3410)">
<path d="M9.58332 11.6762C7.8778 11.5968 6.15278 12.0051 4.64797 12.9012C3.46899 13.6032 0.377794 15.0366 2.26054 16.8303C3.18025 17.7065 4.20457 18.3332 5.49238 18.3332H9.99999M15 17.2617V18.3332M15 17.2617C14.036 17.2617 13.1867 16.7882 12.6886 16.0693M15 17.2617C15.964 17.2617 16.8133 16.7882 17.3114 16.0693M18.3333 12.4403L17.3115 13.0972M17.3115 13.0972C16.8134 12.3782 15.964 11.9046 15 11.9046M17.3115 13.0972C17.606 13.5224 17.7778 14.0335 17.7778 14.5832C17.7778 15.1329 17.606 15.644 17.3114 16.0693M15 11.9046C14.0359 11.9046 13.1866 12.3782 12.6885 13.0972M15 11.9046V10.8332M11.6667 12.4403L12.6885 13.0972M12.6885 13.0972C12.3939 13.5224 12.2222 14.0335 12.2222 14.5832C12.2222 15.1329 12.394 15.644 12.6886 16.0693M12.6886 16.0693L11.667 16.726M17.3114 16.0693L18.333 16.726M12.9167 5.4165C12.9167 7.48757 11.2377 9.1665 9.16666 9.1665C7.09559 9.1665 5.41666 7.48757 5.41666 5.4165C5.41666 3.34544 7.09559 1.6665 9.16666 1.6665C11.2377 1.6665 12.9167 3.34544 12.9167 5.4165Z" stroke="#525252" stroke-width="1.5" stroke-linecap="round"/>
</g>
<defs>
<clipPath id="clip0_29206_3410">
<rect width="20" height="20" fill="white"/>
</clipPath>
</defs>
</svg>
