<svg width="15" height="19" viewBox="0 0 15 19" fill="none" xmlns="http://www.w3.org/2000/svg">
<path d="M13.3333 17.4167C13.3333 17.8309 13.6691 18.1667 14.0833 18.1667C14.4975 18.1667 14.8333 17.8309 14.8333 17.4167H14.0833H13.3333ZM9.08333 9.91667V9.16667C8.88442 9.16667 8.69366 9.24568 8.553 9.38634L9.08333 9.91667ZM7.41667 11.5833L6.88634 12.1137C7.17923 12.4066 7.6541 12.4066 7.947 12.1137L7.41667 11.5833ZM5.75 9.91667L6.28033 9.38634C6.13968 9.24568 5.94891 9.16667 5.75 9.16667V9.91667ZM0 17.4167C0 17.8309 0.335786 18.1667 0.75 18.1667C1.16421 18.1667 1.5 17.8309 1.5 17.4167H0.75H0ZM11.5 9.91667C11.5 9.50245 11.1642 9.16667 10.75 9.16667C10.3358 9.16667 10 9.50245 10 9.91667H10.75H11.5ZM5.25 9.91667C5.25 9.50245 4.91421 9.16667 4.5 9.16667C4.08579 9.16667 3.75 9.50245 3.75 9.91667H4.5H5.25ZM5.41667 15.75C5.41667 16.1642 5.75245 16.5 6.16667 16.5C6.58088 16.5 6.91667 16.1642 6.91667 15.75H6.16667H5.41667ZM2.08333 15.75C2.08333 16.1642 2.41912 16.5 2.83333 16.5C3.24755 16.5 3.58333 16.1642 3.58333 15.75H2.83333H2.08333ZM14.0833 17.4167H14.8333V14.9167H14.0833H13.3333V17.4167H14.0833ZM14.0833 14.9167H14.8333C14.8333 13.7594 14.8349 12.8159 14.7351 12.0736C14.6324 11.3096 14.4101 10.6473 13.8814 10.1186L13.3511 10.6489L12.8208 11.1792C13.0243 11.3828 13.1681 11.6758 13.2485 12.2734C13.3317 12.8926 13.3333 13.717 13.3333 14.9167H14.0833ZM13.3511 10.6489L13.8814 10.1186C13.3527 9.58989 12.6904 9.3676 11.9264 9.26489C11.1841 9.16507 10.2406 9.16667 9.08333 9.16667V9.91667V10.6667C10.283 10.6667 11.1074 10.6683 11.7266 10.7515C12.3242 10.8319 12.6172 10.9757 12.8208 11.1792L13.3511 10.6489ZM9.08333 9.91667L8.553 9.38634L6.88634 11.053L7.41667 11.5833L7.947 12.1137L9.61366 10.447L9.08333 9.91667ZM7.41667 11.5833L7.947 11.053L6.28033 9.38634L5.75 9.91667L5.21967 10.447L6.88634 12.1137L7.41667 11.5833ZM5.75 9.91667V9.16667C4.59269 9.16667 3.64926 9.16507 2.90688 9.26489C2.14293 9.3676 1.48059 9.58989 0.951897 10.1186L1.48223 10.6489L2.01257 11.1792C2.21611 10.9757 2.50914 10.8319 3.10676 10.7515C3.72595 10.6683 4.55028 10.6667 5.75 10.6667V9.91667ZM1.48223 10.6489L0.951897 10.1186C0.423211 10.6473 0.200928 11.3096 0.0982173 12.0736C-0.00159277 12.8159 0 13.7594 0 14.9167H0.75H1.5C1.5 13.717 1.50159 12.8926 1.58484 12.2734C1.66519 11.6758 1.80902 11.3828 2.01257 11.1792L1.48223 10.6489ZM0.75 14.9167H0V17.4167H0.75H1.5V14.9167H0.75ZM10.75 9.91667H10V14.5H10.75H11.5V9.91667H10.75ZM4.5 9.91667H3.75V13.25H4.5H5.25V9.91667H4.5ZM4.5 13.25V14C5.00627 14 5.41667 14.4104 5.41667 14.9167H6.16667H6.91667C6.91667 13.5819 5.83468 12.5 4.5 12.5V13.25ZM6.16667 14.9167H5.41667V15.75H6.16667H6.91667V14.9167H6.16667ZM4.5 13.25V12.5C3.16532 12.5 2.08333 13.5819 2.08333 14.9167H2.83333H3.58333C3.58333 14.4104 3.99373 14 4.5 14V13.25ZM2.83333 14.9167H2.08333V15.75H2.83333H3.58333V14.9167H2.83333ZM10.3333 4.5H11.0833V3.66667H10.3333H9.58333V4.5H10.3333ZM10.3333 3.66667H11.0833C11.0833 1.64162 9.44171 0 7.41667 0V0.75V1.5C8.61329 1.5 9.58333 2.47005 9.58333 3.66667H10.3333ZM7.41667 0.75V0C5.39162 0 3.75 1.64162 3.75 3.66667H4.5H5.25C5.25 2.47005 6.22005 1.5 7.41667 1.5V0.75ZM4.5 3.66667H3.75V4.5H4.5H5.25V3.66667H4.5ZM4.5 4.5H3.75C3.75 6.52505 5.39162 8.16667 7.41667 8.16667V7.41667V6.66667C6.22005 6.66667 5.25 5.69662 5.25 4.5H4.5ZM7.41667 7.41667V8.16667C9.44171 8.16667 11.0833 6.52505 11.0833 4.5H10.3333H9.58333C9.58333 5.69662 8.61329 6.66667 7.41667 6.66667V7.41667ZM11.375 15.125H10.625C10.625 15.056 10.681 15 10.75 15V15.75V16.5C11.5094 16.5 12.125 15.8844 12.125 15.125H11.375ZM10.75 15.75V15C10.819 15 10.875 15.056 10.875 15.125H10.125H9.375C9.375 15.8844 9.99062 16.5 10.75 16.5V15.75ZM10.125 15.125H10.875C10.875 15.194 10.819 15.25 10.75 15.25V14.5V13.75C9.99062 13.75 9.375 14.3656 9.375 15.125H10.125ZM10.75 14.5V15.25C10.681 15.25 10.625 15.194 10.625 15.125H11.375H12.125C12.125 14.3656 11.5094 13.75 10.75 13.75V14.5Z" fill="#525252"/>
</svg>
