<svg width="19" height="18" viewBox="0 0 19 18" fill="none" xmlns="http://www.w3.org/2000/svg">
<path d="M7.83333 6.61538C7.83333 5.90732 8.393 5.33333 9.08333 5.33333C9.77366 5.33333 10.3333 5.90732 10.3333 6.61538C10.3333 6.87061 10.2606 7.10842 10.1352 7.30817C9.76175 7.90367 9.08333 8.47142 9.08333 9.1795V9.5M9.08333 11.1667H9.09083M10.8922 16.0754C14.378 15.8437 17.1547 13.0277 17.3832 9.49242C17.4278 8.80058 17.4278 8.08408 17.3832 7.39225C17.1547 3.85698 14.378 1.04094 10.8922 0.809225C9.70291 0.730175 8.46133 0.730342 7.2745 0.809225C3.78866 1.04094 1.01201 3.85698 0.783531 7.39225C0.738823 8.08408 0.738823 8.80058 0.783531 9.49242C0.866748 10.78 1.43619 11.9722 2.10659 12.9788C2.49584 13.6836 2.23895 14.5632 1.83351 15.3315C1.54117 15.8855 1.39501 16.1625 1.51236 16.3626C1.62973 16.5627 1.89188 16.5691 2.41619 16.5818C3.45306 16.6071 4.15223 16.3131 4.70723 15.9038C5.022 15.6718 5.17939 15.5557 5.28786 15.5423C5.39633 15.529 5.60981 15.6169 6.03667 15.7927C6.42033 15.9507 6.8658 16.0482 7.2745 16.0754C8.46133 16.1543 9.70291 16.1545 10.8922 16.0754Z" stroke="#525252" stroke-width="1.5" stroke-linecap="round" stroke-linejoin="round"/>
</svg>
