<svg width="20" height="18" viewBox="0 0 20 18" fill="none" xmlns="http://www.w3.org/2000/svg">
<path d="M0.75 3C0.335786 3 0 3.33579 0 3.75C0 4.16421 0.335786 4.5 0.75 4.5V3ZM0.75 13C0.335786 13 0 13.3358 0 13.75C0 14.1642 0.335786 14.5 0.75 14.5V13ZM6.75 14.5C7.16421 14.5 7.5 14.1642 7.5 13.75C7.5 13.3358 7.16421 13 6.75 13V14.5ZM18.75 14.5C19.1642 14.5 19.5 14.1642 19.5 13.75C19.5 13.3358 19.1642 13 18.75 13V14.5ZM12.75 3C12.3358 3 12 3.33579 12 3.75C12 4.16421 12.3358 4.5 12.75 4.5V3ZM18.75 4.5C19.1642 4.5 19.5 4.16421 19.5 3.75C19.5 3.33579 19.1642 3 18.75 3V4.5ZM9.59776 5.51537L8.90485 5.22835L9.59776 5.51537ZM9.59776 1.98463L8.90485 2.27165L9.59776 1.98463ZM15.5978 15.5154L14.9049 15.2284L15.5978 15.5154ZM15.5978 11.9846L14.9049 12.2716L15.5978 11.9846ZM0.75 4.5H3.75V3H0.75V4.5ZM0.75 14.5H6.75V13H0.75V14.5ZM15.75 14.5H18.75V13H15.75V14.5ZM12.75 4.5L18.75 4.5V3L12.75 3V4.5ZM6.75 6C6.2738 6 5.95421 5.99959 5.70674 5.98271C5.46601 5.96628 5.3488 5.93681 5.27165 5.90485L4.69762 7.29067C4.98801 7.41095 5.28754 7.45759 5.60464 7.47923C5.915 7.50041 6.29432 7.5 6.75 7.5V6ZM3 3.75C3 4.20568 2.99959 4.585 3.02077 4.89536C3.04241 5.21246 3.08905 5.51199 3.20933 5.80238L4.59515 5.22835C4.56319 5.1512 4.53372 5.03399 4.51729 4.79326C4.50041 4.54579 4.5 4.2262 4.5 3.75H3ZM5.27165 5.90485C4.96536 5.77798 4.72202 5.53464 4.59515 5.22835L3.20933 5.80238C3.48844 6.47621 4.02379 7.01156 4.69762 7.29067L5.27165 5.90485ZM9 3.75C9 4.2262 8.99959 4.54579 8.98271 4.79326C8.96628 5.03399 8.93681 5.1512 8.90485 5.22835L10.2907 5.80238C10.411 5.51199 10.4576 5.21246 10.4792 4.89536C10.5004 4.585 10.5 4.20568 10.5 3.75H9ZM6.75 7.5C7.20568 7.5 7.585 7.50041 7.89536 7.47923C8.21246 7.45759 8.51199 7.41095 8.80238 7.29067L8.22835 5.90485C8.1512 5.93681 8.03399 5.96628 7.79326 5.98271C7.54579 5.99959 7.2262 6 6.75 6V7.5ZM8.90485 5.22835C8.77798 5.53464 8.53464 5.77798 8.22835 5.90485L8.80238 7.29067C9.47621 7.01156 10.0116 6.47621 10.2907 5.80238L8.90485 5.22835ZM6.75 1.5C7.2262 1.5 7.54579 1.50041 7.79326 1.51729C8.03399 1.53372 8.1512 1.56319 8.22835 1.59515L8.80238 0.209331C8.51199 0.0890482 8.21246 0.0424053 7.89536 0.0207698C7.585 -0.000406146 7.20568 0 6.75 0V1.5ZM10.5 3.75C10.5 3.29432 10.5004 2.915 10.4792 2.60464C10.4576 2.28754 10.411 1.98801 10.2907 1.69762L8.90485 2.27165C8.93681 2.3488 8.96628 2.46601 8.98271 2.70674C8.99959 2.95421 9 3.2738 9 3.75H10.5ZM8.22835 1.59515C8.53464 1.72202 8.77798 1.96536 8.90485 2.27165L10.2907 1.69762C10.0116 1.02379 9.47621 0.48844 8.80238 0.209331L8.22835 1.59515ZM6.75 0C6.29432 0 5.915 -0.000406146 5.60464 0.0207698C5.28754 0.0424053 4.98801 0.0890482 4.69762 0.209331L5.27165 1.59515C5.3488 1.56319 5.46601 1.53372 5.70674 1.51729C5.95421 1.50041 6.2738 1.5 6.75 1.5V0ZM4.5 3.75C4.5 3.2738 4.50041 2.95421 4.51729 2.70674C4.53372 2.46602 4.56319 2.3488 4.59515 2.27165L3.20933 1.69762C3.08905 1.98801 3.04241 2.28754 3.02077 2.60464C2.99959 2.915 3 3.29432 3 3.75H4.5ZM4.69762 0.209331C4.02379 0.48844 3.48844 1.02379 3.20933 1.69762L4.59515 2.27165C4.72202 1.96536 4.96536 1.72202 5.27165 1.59515L4.69762 0.209331ZM12.75 16C12.2738 16 11.9542 15.9996 11.7067 15.9827C11.466 15.9663 11.3488 15.9368 11.2716 15.9049L10.6976 17.2907C10.988 17.411 11.2875 17.4576 11.6046 17.4792C11.915 17.5004 12.2943 17.5 12.75 17.5V16ZM9 13.75C9 14.2057 8.99959 14.585 9.02077 14.8954C9.04241 15.2125 9.08905 15.512 9.20933 15.8024L10.5951 15.2284C10.5632 15.1512 10.5337 15.034 10.5173 14.7933C10.5004 14.5458 10.5 14.2262 10.5 13.75H9ZM11.2716 15.9049C10.9654 15.778 10.722 15.5346 10.5951 15.2284L9.20933 15.8024C9.48844 16.4762 10.0238 17.0116 10.6976 17.2907L11.2716 15.9049ZM15 13.75C15 14.2262 14.9996 14.5458 14.9827 14.7933C14.9663 15.034 14.9368 15.1512 14.9049 15.2284L16.2907 15.8024C16.411 15.512 16.4576 15.2125 16.4792 14.8954C16.5004 14.585 16.5 14.2057 16.5 13.75H15ZM12.75 17.5C13.2057 17.5 13.585 17.5004 13.8954 17.4792C14.2125 17.4576 14.512 17.411 14.8024 17.2907L14.2284 15.9049C14.1512 15.9368 14.034 15.9663 13.7933 15.9827C13.5458 15.9996 13.2262 16 12.75 16V17.5ZM14.9049 15.2284C14.778 15.5346 14.5346 15.778 14.2284 15.9049L14.8024 17.2907C15.4762 17.0116 16.0116 16.4762 16.2907 15.8024L14.9049 15.2284ZM12.75 11.5C13.2262 11.5 13.5458 11.5004 13.7933 11.5173C14.034 11.5337 14.1512 11.5632 14.2284 11.5951L14.8024 10.2093C14.512 10.089 14.2125 10.0424 13.8954 10.0208C13.585 9.99959 13.2057 10 12.75 10V11.5ZM16.5 13.75C16.5 13.2943 16.5004 12.915 16.4792 12.6046C16.4576 12.2875 16.411 11.988 16.2907 11.6976L14.9049 12.2716C14.9368 12.3488 14.9663 12.466 14.9827 12.7067C14.9996 12.9542 15 13.2738 15 13.75H16.5ZM14.2284 11.5951C14.5346 11.722 14.778 11.9654 14.9049 12.2716L16.2907 11.6976C16.0116 11.0238 15.4762 10.4884 14.8024 10.2093L14.2284 11.5951ZM12.75 10C12.2943 10 11.915 9.99959 11.6046 10.0208C11.2875 10.0424 10.988 10.089 10.6976 10.2093L11.2716 11.5951C11.3488 11.5632 11.466 11.5337 11.7067 11.5173C11.9542 11.5004 12.2738 11.5 12.75 11.5V10ZM10.5 13.75C10.5 13.2738 10.5004 12.9542 10.5173 12.7067C10.5337 12.466 10.5632 12.3488 10.5951 12.2716L9.20933 11.6976C9.08905 11.988 9.04241 12.2875 9.02077 12.6046C8.99959 12.915 9 13.2943 9 13.75H10.5ZM10.6976 10.2093C10.0238 10.4884 9.48844 11.0238 9.20933 11.6976L10.5951 12.2716C10.722 11.9654 10.9654 11.722 11.2716 11.5951L10.6976 10.2093Z" fill="#525252"/>
</svg>
