<svg width="22" height="18" viewBox="0 0 22 18" fill="none" xmlns="http://www.w3.org/2000/svg">
<path d="M9.75 4.75H11.75M15.75 5.65585L15.8759 5.55196C17.9917 3.80623 19.0496 2.93336 19.8998 3.35482C20.75 3.77628 20.75 5.17355 20.75 7.9681V9.5319C20.75 12.3265 20.75 13.7237 19.8998 14.1452C19.0496 14.5666 17.9917 13.6938 15.8759 11.948L15.75 11.8441M0.75 7.75C0.75 4.45017 0.75 2.80025 1.77513 1.77513C2.80025 0.75 4.45017 0.75 7.75 0.75H8.75C12.0498 0.75 13.6997 0.75 14.7249 1.77513C15.75 2.80025 15.75 4.45017 15.75 7.75V9.75C15.75 13.0498 15.75 14.6997 14.7249 15.7249C13.6997 16.75 12.0498 16.75 8.75 16.75H7.75C4.45017 16.75 2.80025 16.75 1.77513 15.7249C0.75 14.6997 0.75 13.0498 0.75 9.75V7.75Z" stroke="white" stroke-width="1.5" stroke-linecap="round" stroke-linejoin="round"/>
</svg>
