<svg width="18" height="18" viewBox="0 0 18 18" fill="none" xmlns="http://www.w3.org/2000/svg">
<path d="M9.41667 4.4998C9.41667 4.08558 9.08088 3.7498 8.66667 3.7498C8.25245 3.7498 7.91667 4.08558 7.91667 4.4998H8.66667H9.41667ZM10.447 9.38613C10.1541 9.09324 9.67923 9.09324 9.38634 9.38613C9.09344 9.67903 9.09344 10.1539 9.38634 10.4468L9.91667 9.91646L10.447 9.38613ZM10.6363 11.6968C10.9292 11.9897 11.4041 11.9897 11.697 11.6968C11.9899 11.4039 11.9899 10.929 11.697 10.6361L11.1667 11.1665L10.6363 11.6968ZM8.66667 16.5833V15.8333C6.77949 15.8333 5.43955 15.8317 4.42323 15.6951C3.42849 15.5614 2.85681 15.3107 2.4397 14.8936L1.90937 15.424L1.37904 15.9543C2.1213 16.6966 3.06229 17.0256 4.22336 17.1817C5.36286 17.3349 6.82189 17.3333 8.66667 17.3333V16.5833ZM0.75 8.66667H0C0 10.5114 -0.0015928 11.9705 0.151609 13.11C0.307712 14.271 0.636778 15.212 1.37904 15.9543L1.90937 15.424L2.4397 14.8936C2.02259 14.4765 1.77197 13.9048 1.63823 12.9101C1.50159 11.8938 1.5 10.5538 1.5 8.66667H0.75ZM16.5833 8.66667H15.8333C15.8333 10.5538 15.8317 11.8938 15.6951 12.9101C15.5614 13.9048 15.3107 14.4765 14.8936 14.8936L15.424 15.424L15.9543 15.9543C16.6966 15.212 17.0256 14.271 17.1817 13.11C17.3349 11.9705 17.3333 10.5114 17.3333 8.66667H16.5833ZM8.66667 16.5833V17.3333C10.5114 17.3333 11.9705 17.3349 13.11 17.1817C14.271 17.0256 15.212 16.6966 15.9543 15.9543L15.424 15.424L14.8936 14.8936C14.4765 15.3107 13.9048 15.5614 12.9101 15.6951C11.8938 15.8317 10.5538 15.8333 8.66667 15.8333V16.5833ZM8.66667 0.75V1.5C10.5538 1.5 11.8938 1.50159 12.9101 1.63823C13.9048 1.77197 14.4765 2.02259 14.8936 2.4397L15.424 1.90937L15.9543 1.37904C15.212 0.636778 14.271 0.307712 13.11 0.151609C11.9705 -0.0015928 10.5114 0 8.66667 0V0.75ZM16.5833 8.66667H17.3333C17.3333 6.82189 17.3349 5.36286 17.1817 4.22336C17.0256 3.06229 16.6966 2.1213 15.9543 1.37904L15.424 1.90937L14.8936 2.4397C15.3107 2.85681 15.5614 3.42849 15.6951 4.42323C15.8317 5.43955 15.8333 6.77949 15.8333 8.66667H16.5833ZM8.66667 0.75V0C6.82189 0 5.36286 -0.0015928 4.22336 0.151609C3.06229 0.307712 2.1213 0.636778 1.37904 1.37904L1.90937 1.90937L2.4397 2.4397C2.85681 2.02259 3.42849 1.77197 4.42323 1.63823C5.43955 1.50159 6.77949 1.5 8.66667 1.5V0.75ZM0.75 8.66667H1.5C1.5 6.77949 1.50159 5.43955 1.63823 4.42323C1.77197 3.42849 2.02259 2.85681 2.4397 2.4397L1.90937 1.90937L1.37904 1.37904C0.636778 2.1213 0.307712 3.06229 0.151609 4.22336C-0.0015928 5.36286 0 6.82189 0 8.66667H0.75ZM8.66667 4.4998H7.91667V7.41646H8.66667H9.41667V4.4998H8.66667ZM9.91667 9.91646L9.38634 10.4468L10.6363 11.6968L11.1667 11.1665L11.697 10.6361L10.447 9.38613L9.91667 9.91646ZM9.91667 8.66646H9.16667C9.16667 8.94261 8.94281 9.16646 8.66667 9.16646V9.91646V10.6665C9.77124 10.6665 10.6667 9.77103 10.6667 8.66646H9.91667ZM8.66667 9.91646V9.16646C8.39052 9.16646 8.16667 8.94261 8.16667 8.66646H7.41667H6.66667C6.66667 9.77103 7.5621 10.6665 8.66667 10.6665V9.91646ZM7.41667 8.66646H8.16667C8.16667 8.39032 8.39052 8.16646 8.66667 8.16646V7.41646V6.66646C7.5621 6.66646 6.66667 7.56189 6.66667 8.66646H7.41667ZM8.66667 7.41646V8.16646C8.94281 8.16646 9.16667 8.39032 9.16667 8.66646H9.91667H10.6667C10.6667 7.56189 9.77124 6.66646 8.66667 6.66646V7.41646Z" fill="#525252"/>
</svg>
