<svg width="8" height="8" viewBox="0 0 8 8" fill="none" xmlns="http://www.w3.org/2000/svg">
<path d="M7.18655 3.58L6.73321 3.05333C6.64655 2.95333 6.57655 2.76667 6.57655 2.63333V2.06667C6.57655 1.71333 6.28655 1.42333 5.93321 1.42333H5.36655C5.23655 1.42333 5.04655 1.35333 4.94655 1.26667L4.41988 0.813333C4.18988 0.616666 3.81321 0.616666 3.57988 0.813333L3.05655 1.27C2.95655 1.35333 2.76655 1.42333 2.63655 1.42333H2.05988C1.70655 1.42333 1.41655 1.71333 1.41655 2.06667V2.63667C1.41655 2.76667 1.34655 2.95333 1.26321 3.05333L0.813213 3.58333C0.61988 3.81333 0.61988 4.18667 0.813213 4.41667L1.26321 4.94667C1.34655 5.04667 1.41655 5.23333 1.41655 5.36333V5.93333C1.41655 6.28667 1.70655 6.57667 2.05988 6.57667H2.63655C2.76655 6.57667 2.95655 6.64667 3.05655 6.73333L3.58321 7.18667C3.81321 7.38333 4.18988 7.38333 4.42321 7.18667L4.94988 6.73333C5.04988 6.64667 5.23655 6.57667 5.36988 6.57667H5.93655C6.28988 6.57667 6.57988 6.28667 6.57988 5.93333V5.36667C6.57988 5.23667 6.64988 5.04667 6.73655 4.94667L7.18988 4.42C7.38321 4.19 7.38321 3.81 7.18655 3.58ZM5.38655 3.37L3.77655 4.98C3.72988 5.02667 3.66655 5.05333 3.59988 5.05333C3.53321 5.05333 3.46988 5.02667 3.42321 4.98L2.61655 4.17333C2.51988 4.07667 2.51988 3.91667 2.61655 3.82C2.71321 3.72333 2.87321 3.72333 2.96988 3.82L3.59988 4.45L5.03321 3.01667C5.12988 2.92 5.28988 2.92 5.38655 3.01667C5.48321 3.11333 5.48321 3.27333 5.38655 3.37Z" fill="#2563EB"/>
</svg>
