<svg width="24" height="24" viewBox="0 0 24 24" fill="none" xmlns="http://www.w3.org/2000/svg">
<path d="M6.58672 15.6538H13.8945V15.2963C13.8945 14.6654 13.5551 14.1507 12.8762 13.752C12.1974 13.3532 11.3189 13.1538 10.2407 13.1538C9.16239 13.1538 8.28381 13.3532 7.60497 13.752C6.92614 14.1507 6.58672 14.6654 6.58672 15.2963V15.6538ZM10.2407 11.8463C10.7266 11.8463 11.1396 11.676 11.48 11.3355C11.8205 10.9952 11.9907 10.5821 11.9907 10.0962C11.9907 9.61025 11.8205 9.19708 11.48 8.85675C11.1396 8.51642 10.7266 8.34625 10.2407 8.34625C9.75472 8.34625 9.34156 8.51642 9.00122 8.85675C8.66089 9.19708 8.49072 9.61025 8.49072 10.0962C8.49072 10.5821 8.66089 10.9952 9.00122 11.3355C9.34156 11.676 9.75472 11.8463 10.2407 11.8463ZM4.54822 19.5C4.04322 19.5 3.61572 19.325 3.26572 18.975C2.91572 18.625 2.74072 18.1974 2.74072 17.6923V6.30775C2.74072 5.80258 2.91572 5.375 3.26572 5.025C3.61572 4.675 4.04322 4.5 4.54822 4.5H15.933C16.438 4.5 16.8655 4.675 17.2155 5.025C17.5655 5.375 17.7405 5.80258 17.7405 6.30775V10.8848L21.2597 7.3655V16.6345L17.7405 13.1152V17.6923C17.7405 18.1974 17.5655 18.625 17.2155 18.975C16.8655 19.325 16.438 19.5 15.933 19.5H4.54822ZM4.54822 18H15.933C16.0226 18 16.0963 17.9712 16.154 17.9135C16.2118 17.8558 16.2407 17.7821 16.2407 17.6923V6.30775C16.2407 6.21792 16.2118 6.14417 16.154 6.0865C16.0963 6.02883 16.0226 6 15.933 6H4.54822C4.45856 6 4.38489 6.02883 4.32722 6.0865C4.26956 6.14417 4.24072 6.21792 4.24072 6.30775V17.6923C4.24072 17.7821 4.26956 17.8558 4.32722 17.9135C4.38489 17.9712 4.45856 18 4.54822 18Z" fill="#3D3C3F"/>
</svg>
